<?xml version="1.0" encoding="utf-8"?>
<!-- Generator: Adobe Illustrator 22.0.0, SVG Export Plug-In . SVG Version: 6.00 Build 0)  -->
<svg version="1.1" id="Layer_1" xmlns="http://www.w3.org/2000/svg" xmlns:xlink="http://www.w3.org/1999/xlink" x="0px" y="0px"
	 viewBox="0 0 283.5 283.5" style="enable-background:new 0 0 283.5 283.5;" xml:space="preserve">
<style type="text/css">
	.st0{fill:#56575C;}
	.st1{fill:#F7CB9C;}
	.st2{fill:#C5C748;}
	.st3{fill:#6B6C73;}
	.st4{fill:#526F7A;}
	.st5{fill:#F2B87B;}
	.st6{fill:#B34B3D;}
	.st7{fill:#A66128;}
	.st8{fill:#42210B;}
	.st9{fill:#E8955D;}
	.st10{fill:#6E4620;}
	.st11{fill:#42626E;}
	.st12{fill:#61828F;}
	.st13{fill:#FC8271;}
	.st14{fill:#979930;}
	.st15{fill:#874B1B;}
</style>
<g>
	<path class="st0" d="M124.1,224.1c-4.4,3.2-10,2.8-9.4,9c0.5,6.2,6,15.7,10.7,14.5c4.7-1.2,1.6-8.2,1.7-9.8
		c0.1-1.6,4.8-2.6,7.2-4.5C136.7,231.3,124.1,224.1,124.1,224.1z"/>
	<path class="st1" d="M149.6,178.3c2.3,7,3.2,11.1,14.3,9.3c7.6-1.3,21.3-10.2,21.6-16.2c0.3-6-3.7-9.8-6.7-9.5
		c0.3-2.8-3.3-1.7-5.2,0.3c-1.8,2-2.3,4-1.3,6.3c-5.5,2.7-9.3,2.5-10.3,0.2c-1-2.3-2.2-10.8-2.2-10.8S144.8,159.7,149.6,178.3z"/>
	<path class="st2" d="M147.1,170.4c6.3-0.2,16.5-1.7,17.8-3.4c1.3-1.7-2-16.6-10-19.6C146,144.2,146.1,165.7,147.1,170.4z"/>
	<path class="st2" d="M106.4,172.2c2.6-8,6.1-16.2,7.3-19.6c8.1-23.8,17.2-12.8,19.3-13.2c2.2-0.3,20,3.7,22,6.5
		c2,2.8,2.5,16-5,27.3C142.5,184.6,109.9,187.5,106.4,172.2z"/>
	<path class="st0" d="M85.5,222.1c-4.1,3.3-8.9,5.1-11.1,6.8s-1,7.1,2.4,13.9s8.9,8.8,10.9,5.3s-3.8-5.4-0.3-9.5s7.3-7.6,7.3-7.6
		L85.5,222.1z"/>
	<g>
		<path class="st3" d="M84.2,244.5c0,0.1-0.9,0-1.8-1.2l0,0c-0.3-0.4-0.5-0.9-0.6-1.5c0-0.1-0.1-0.3-0.1-0.4c0-0.1-0.1-0.2-0.1-0.4
			c-0.1-0.3-0.2-0.5-0.3-0.8c-0.2-0.6-0.4-1.2-0.6-1.8c-0.1-0.4-0.2-0.7-0.2-1.1c-0.1-0.4-0.1-0.8-0.1-1.2c0-0.7,0.4-1.5,0.8-2
			c0.4-0.5,0.8-1,1.2-1.4c0.8-0.8,1.7-1.4,2.4-1.8c1.4-0.9,2.4-1.3,2.5-1.2c0.1,0.2-0.7,0.9-1.9,1.9c-0.6,0.5-1.4,1.2-2.1,1.9
			c-0.3,0.4-0.7,0.8-1,1.3c-0.3,0.4-0.5,0.9-0.5,1.4c0,0.6,0.1,1.3,0.2,1.8c0.2,0.7,0.3,1.3,0.5,1.9c0.1,0.3,0.1,0.6,0.2,0.9
			c0,0.2,0.1,0.3,0.1,0.4c0,0.1,0,0.3,0,0.4c0,0.5,0.1,0.9,0.3,1.2l0,0C83.6,243.9,84.3,244.3,84.2,244.5z"/>
	</g>
	<g>
		<path class="st3" d="M86.2,241.2c-0.1,0.1-0.4,0.2-0.6,0.2c-0.3,0-0.7,0-1.3-0.1c0.1,0,0,0-0.1,0l-0.2,0c-0.1,0-0.2,0-0.3-0.1
			c-0.2-0.1-0.4-0.1-0.5-0.1c-0.3-0.1-0.5-0.2-0.6-0.4c-0.1-0.2,0.1-0.4,0.5-0.5c0.2-0.1,0.4-0.1,0.7-0.1c0.1,0,0.3,0,0.4,0l0.2,0
			c0.1,0,0.1,0,0.3,0c0.4,0.1,0.9,0.3,1.3,0.5C86.2,240.8,86.3,241.1,86.2,241.2z"/>
	</g>
	<g>
		<path class="st3" d="M87.2,237.7c-0.3,0.3-1.4-0.4-2.8-1.2c-1.4-0.7-2.6-1.3-2.6-1.6c0.1-0.3,1.5-0.3,3.2,0.5
			C86.6,236.2,87.5,237.5,87.2,237.7z"/>
	</g>
	<g>
		<path class="st3" d="M89.1,235.1c-0.3,0.3-1.3-0.4-2.3-1.3c-0.5-0.5-0.9-0.9-1.2-1.1c-0.3-0.3-0.5-0.4-0.5-0.6
			c0-0.2,0.3-0.4,0.9-0.3c0.6,0.1,1.2,0.5,1.7,1C88.8,233.9,89.4,234.9,89.1,235.1z"/>
	</g>
	<g>
		<path class="st3" d="M124,243.6c-0.2,0-0.4-0.6-0.8-1.7c-0.2-0.5-0.4-1.2-0.6-1.9c-0.3-0.7-0.6-1.5-0.8-2.5l0,0
			c-0.1-0.3-0.1-0.7-0.2-1c0-0.3,0-0.7,0-1c0-0.3,0-0.6,0.1-0.9c0.1-0.3,0.1-0.6,0.2-0.9c0.2-0.6,0.7-1.1,1.1-1.4
			c0.9-0.7,1.6-1.1,2.3-1.4c1.3-0.7,2.2-1,2.3-0.8c0.1,0.2-0.6,0.8-1.8,1.6c-0.6,0.4-1.3,0.9-2,1.5c-0.3,0.3-0.6,0.6-0.7,1
			c-0.1,0.2-0.1,0.4-0.2,0.7c-0.1,0.2-0.1,0.5-0.1,0.8c0,0.3,0,0.6,0,0.8c0,0.3,0.1,0.5,0.1,0.8l0,0c0.1,0.8,0.4,1.6,0.6,2.3
			c0.2,0.8,0.3,1.5,0.4,2C124.2,242.9,124.2,243.6,124,243.6z"/>
	</g>
	<g>
		<path class="st3" d="M126.5,241.3c0,0.4-0.7,0.6-1.5,0.5c-0.3,0-0.7-0.1-0.9-0.2c-0.2-0.1-0.4-0.2-0.5-0.4c-0.1-0.2,0-0.4,0.3-0.5
			c0.3-0.2,0.7-0.3,1.1-0.2C126,240.6,126.5,240.9,126.5,241.3z"/>
	</g>
	<g>
		<path class="st3" d="M127,237.6c-0.1,0.1-0.2,0.1-0.3,0.1c-0.1,0-0.2,0-0.4,0c-0.2,0-0.4,0-0.6-0.1c-0.3-0.1-0.5-0.2-0.8-0.3
			c-0.3-0.1-0.5-0.2-0.7-0.4c-0.2-0.1-0.4-0.2-0.5-0.3c-0.3-0.1-0.5-0.3-0.5-0.5c0-0.2,0.2-0.3,0.7-0.4c0.2,0,0.5,0,0.8,0.1
			c0.2,0.1,0.5,0.2,0.8,0.3c0.2,0.1,0.5,0.2,0.7,0.3c0.2,0.1,0.4,0.2,0.6,0.4c0.2,0.1,0.3,0.3,0.3,0.4
			C127.1,237.4,127.1,237.5,127,237.6z"/>
	</g>
	<g>
		<path class="st3" d="M129.1,235.3c-0.3,0.3-1.3-0.4-2.4-1.3c-0.6-0.5-1-0.9-1.4-1.2c-0.3-0.3-0.6-0.5-0.5-0.7
			c0-0.2,0.4-0.2,0.9-0.1c0.5,0.1,1.2,0.5,1.7,1C128.8,234,129.4,235.1,129.1,235.3z"/>
	</g>
	<path class="st4" d="M111.9,170.3c-4.2,0.9-6.8-0.3-7.3,1.5s-5.3,14.5-9,21.5s-7,16.3-13.5,19.8c-3,2.3-0.8,6.8,0.8,10.3
		s6.8,9.8,12.3,10.8s5.3-1.3,11-6.3s15-16,15.8-19c5.8,5.5,8.7,9.3,7,10.3c-1.7,1-7.2,4-5.5,6.8s7.5,9,10.7,9.8s3.8-1.5,9.3-4.3
		s15.8-7.5,13.5-18s-10.8-18.8-11-21.3s9.5-21.5,9-31c-0.5-2.5-1.8-0.5-8.8-2.3s-13.5-4-19.7,2.3
		C120.1,167.3,120.4,168.6,111.9,170.3z"/>
	<path class="st5" d="M133,134.3c-3.9,5.1,6.8,14.8,12.3,14.9s8.5-7,11-11.3C158.7,133.6,133,134.3,133,134.3z"/>
	<path class="st1" d="M111.1,115.3c-5,4.3-0.8,19.7,13.3,14.7c11.5,12.8,39,18.3,57.5,9.8s12-15.2,10.8-21.5s2.8-9.3,3.5-19.8
		s-5.5-27.3-22-35S111.9,91.3,111.1,115.3z"/>
	<path class="st6" d="M172.1,120.4c-2.5,0.1-6.9-0.6-8.8-0.8s-2.3,1.6-0.8,6.3c1.5,4.6,8,6.5,11.8,3.2c3.8-3.2,4.1-7.9,3.4-8.2
		S176.1,120.3,172.1,120.4z"/>
	<path class="st7" d="M109.8,116.6c3.3-3.7,11.2-5.3,14.2-1.3s3.7,4.7,7,2.3c3.3-2.3,3-6.2-0.7-12.2c5.8-1.2,6.8-5.5,5.7-8.7
		c3.4,1.6,13.9-4.9,9.8-17.8c12.2,7.8,23.8,7.3,21.7-6c14,9.5,21.7,14.2,28.5,12.7c6.8-1.5,9.8-5.8,6.7-9.7
		c10.5-3.3,7.2-12.2,1.8-15c-5.3-2.8-9.8-2.7-12.2,0.8c4.3-6.3-1.8-9-6.8-3.2c6.5-12.3-3.5-20.8-11.7-23.7c-8.2-2.8-13.8-2-20.2,6.8
		c4.7-8.2-2.2-11-8.2-9.2s-9.2,6.2-9.7,12.7c-4.5-7.7-9.2-6-10.8-4.3s-2.2,3.5,0.2,8.7s0.8,11-5.7,15.5s-8.5,8.3-9.7,6.5
		s-7.3-4.5-12-2.8s-2.7,4.8,2.7,5.7C89,77.1,89,81.2,90,83.6s3.3,2.2,8,0c-8.2,6.8-7,16.7-2,23.5C101,113.9,105.5,119.2,109.8,116.6
		z"/>
	<path class="st8" d="M144.1,112.4c1.5-3,6-4.7,8.1-2.7s2.8,5.3,1.8,5.5s-1.7-3.1-4.3-3S143,114.6,144.1,112.4z"/>
	<path class="st8" d="M180.5,114.7c1,1.3,4.2-1.8,5.7-0.2s2.3,2.1,3,1.8s-1-5.6-2.8-5.6S180,113.7,180.5,114.7z"/>
	<g>
		<path class="st9" d="M173.9,117.1c-0.2,0-0.3-0.5-0.6-1.2c-0.3-0.7-0.9-1.6-1.8-2c-0.8-0.3-1.9,0.2-2.6,0.5
			c-0.8,0.3-1.4,0.5-1.4,0.3c-0.1-0.2,0.3-0.5,0.9-1.1c0.3-0.3,0.8-0.6,1.3-0.8c0.6-0.2,1.4-0.4,2.2-0.1c0.8,0.3,1.3,0.9,1.7,1.4
			c0.4,0.6,0.5,1.1,0.6,1.6C174.3,116.5,174,117.1,173.9,117.1z"/>
	</g>
	<g>
		<path class="st10" d="M154.3,91.6c0,0.2-0.4,0.5-1.2,0.9c-0.8,0.3-1.8,0.9-3,1.4c-2.3,1.1-4.3,1.9-4.5,1.6
			c-0.2-0.3,1.5-1.6,3.9-2.8c1.2-0.5,2.4-1,3.3-1.1C153.7,91.4,154.2,91.4,154.3,91.6z"/>
	</g>
	<g>
		<path class="st10" d="M191.8,97.7c-0.2,0.1-0.5-0.3-0.9-0.9c-0.4-0.5-1-1.2-1.8-1.9c-1.6-1.3-3.2-2.1-3.1-2.4
			c0.1-0.3,2-0.1,3.9,1.4c0.9,0.8,1.6,1.7,1.8,2.4C192,97.2,192,97.7,191.8,97.7z"/>
	</g>
	<path class="st11" d="M125,136.7c2.5-1.5,7.7-1.8,11.2,5.5c3.5,7.3,4.2,17.2-0.3,24.2c-1.5,1.8-8.2,0.2-8.2-1c0-1.2,5.2-9,3.7-16
		C129.8,142.4,129.5,138.4,125,136.7z"/>
	<path class="st11" d="M152.2,144.6c2,3.2,1.5,15.5-2.8,22.2c-1,2.5,5.3,3.8,7.3,1.2c2-2.7,5.8-14.1-0.9-21.6
		C153.4,144.2,152.2,144.6,152.2,144.6z"/>
	<path class="st1" d="M111.6,135.9c-3.4,0-15,0.2-21.3,5.3c-6.3,5.2-9.7,28-7.7,31.3s3.8,4.7,3.8,5.2s-2.3-1.2-2.3,0.2
		c0,1.3,1.5,6,7.2,3c2.2,1.3,3.2-0.5,3.2-0.5c2.8,0.3,3.8-2.2,3.8-2.2c2.2-0.8,1.5-3.8-1.2-6.8s1.3-6.8,2.5-11.7
		c1.2-4.8,2.5-3.8,6.7-3.3s16.8,2.2,17.8-6.5C125.1,141.2,115.5,135.9,111.6,135.9z"/>
	<path class="st2" d="M110,133.4c-6,0-8.5,0.1-5.1,4.6c3.3,4.5,3.5,13.5,0.4,19.8c-3.1,6.3,17.8,5.1,22.1-2.4
		C131.7,148,134.6,133.4,110,133.4z"/>
	<g>
		<path class="st12" d="M132.8,162.4c0,0,0,0.1,0,0.2c0,0.1,0,0.2,0,0.2c-0.1,0,0,0,0,0c0,0,0,0,0.1,0c0,0,0,0,0,0c0,0,0.1,0,0.2,0
			c0.1,0,0.3-0.1,0.5-0.2c0.4-0.3,0.2-0.5,0.1-0.4c0,0-0.3,0.1-0.3,0.2c-0.1,0-0.1,0.3,0,0.4c0,0.1,0,0,0.1,0.1c0,0,0.2,0,0.2,0
			c0.1,0,0.2-0.1,0.2-0.3c0-0.2-0.1-0.4-0.1-0.5c0-0.1-0.2-0.1-0.3,0l-0.1,0c-0.1-0.1-0.4,0.3-0.5,0.6c-0.1,0.3-0.3,0.4-0.3,0.3
			c-0.1,0-0.1-0.2-0.1-0.5c0-0.1,0-0.3,0-0.5c0-0.2,0.2-0.6,0.6-0.8c0,0-0.1,0-0.1,0c0.3-0.2,0.8-0.4,1.4-0.1
			c0.5,0.3,0.7,0.8,0.8,1.3c0,0.3,0,0.6-0.2,0.9c-0.2,0.3-0.5,0.6-0.8,0.7c-0.3,0.1-0.6,0.1-1,0.1c-0.2,0-0.4-0.2-0.5-0.3
			c-0.1-0.1-0.3-0.3-0.4-0.5c-0.3-0.6-0.3-1.3,0.2-1.8c0.4-0.5,0.9-0.7,1.7-0.5c0.2,0.1,0.3,0.1,0.4,0.2c0.1,0.1,0.2,0.2,0.3,0.4
			c0.2,0.3,0.1,0.6,0.1,0.9c-0.1,0.6-0.6,0.8-0.9,1c-0.3,0.1-0.6,0.2-0.9,0.1c-0.1,0-0.3-0.1-0.4-0.1c-0.1-0.1-0.3-0.3-0.3-0.4
			c0-0.3,0.2-0.4,0.3-0.4C132.7,162.4,132.8,162.4,132.8,162.4z"/>
	</g>
	<g>
		<path class="st12" d="M153.8,164.9c0.1,0,0.1,0.1,0.2,0.3c0,0.2,0.1,0.3,0.2,0.4c0.1,0.1,0.2,0,0.2-0.1c0,0,0-0.1,0.1-0.2
			c0-0.1,0.1-0.2,0-0.3c0-0.2,0-0.1,0-0.2c-0.1,0-0.3,0-0.4,0.1l-0.1,0.1c-0.4,0.2-0.5,0.8-0.7,0.8c-0.1,0-0.2-0.1-0.3-0.4
			c0-0.1-0.1-0.3,0-0.5c0-0.2,0.1-0.4,0.3-0.7l-0.1,0.1c0.2-0.4,0.7-0.7,1.3-0.8c0.3,0,0.7,0.1,0.9,0.4c0.1,0.1,0.2,0.3,0.3,0.4
			c0.1,0.2,0.1,0.3,0.1,0.5c0,0.4,0,0.8-0.2,1c-0.1,0.2-0.2,0.3-0.3,0.4c-0.1,0.1-0.3,0.2-0.5,0.3c-0.3,0.1-0.7,0.2-1,0
			c-0.3-0.1-0.4-0.4-0.5-0.6c-0.1-0.5,0.1-0.9,0.2-1C153.6,164.9,153.7,164.9,153.8,164.9z"/>
	</g>
	<g>
		<path class="st12" d="M127.5,200.9c0.1,0.1-0.4,0.7-1.2,1.3c-0.2,0.2-0.4,0.4-0.6,0.6c-0.1,0.1-0.2,0.2-0.3,0.3
			c-0.1,0.1-0.2,0.3-0.2,0.3c-0.3,0.7-0.6,1.4-1,2.1c-0.7,1.5-1.6,2.8-2.1,3.7c-0.6,0.9-1.1,1.4-1.2,1.3c-0.2-0.1,0-0.7,0.4-1.8
			c0.4-1.1,1.1-2.3,1.8-3.8c0.4-0.8,0.7-1.5,1.1-2.1c0.2-0.3,0.3-0.4,0.4-0.5c0.1-0.1,0.3-0.3,0.4-0.4c0.3-0.2,0.6-0.4,0.8-0.5
			C126.7,200.9,127.3,200.8,127.5,200.9z"/>
	</g>
	<g>
		<path class="st12" d="M107.8,176.9c-0.3-0.2-0.2-1,0.2-1.9c0.5-0.9,1.1-1.5,1.4-1.3c0.3,0.2,0.2,1-0.2,1.9
			C108.7,176.5,108.1,177.1,107.8,176.9z"/>
	</g>
	<g>
		<path class="st12" d="M104.5,184.7c-0.3-0.1,0-1.3,0.5-2.2c0.4-1,1.1-2,1.5-1.8c0.3,0.2,0.3,1.1-0.3,2.4
			C105.5,184.3,104.8,184.9,104.5,184.7z"/>
	</g>
	<g>
		<path class="st12" d="M100.3,193.2c-0.3-0.2-0.3-1,0.2-1.9c0.4-0.9,1-1.5,1.3-1.3c0.3,0.2,0.3,1-0.2,1.9
			C101.2,192.8,100.6,193.4,100.3,193.2z"/>
	</g>
	<g>
		<path class="st12" d="M96.3,200.4c-0.3-0.3,0-1,0.5-2.1c0.3-0.5,0.7-0.9,1-1.2c0.4-0.2,0.7-0.3,0.8-0.1c0.1,0.1,0.1,0.4-0.1,0.7
			c-0.1,0.3-0.3,0.7-0.6,1.2c-0.3,0.5-0.6,0.9-0.9,1.2C96.7,200.4,96.4,200.5,96.3,200.4z"/>
	</g>
	<g>
		<path class="st12" d="M91.6,209.7c-0.3-0.1-0.3-0.9,0.2-1.8c0.5-0.8,1.3-1.2,1.5-0.9c0.3,0.3,0,0.9-0.4,1.6
			C92.5,209.4,92,209.9,91.6,209.7z"/>
	</g>
	<g>
		<path class="st12" d="M86.1,215.9c-0.2-0.3,0.1-1,0.8-1.6c0.7-0.6,1.4-0.8,1.7-0.6c0.3,0.3-0.1,1-0.8,1.6
			C87.1,215.9,86.3,216.2,86.1,215.9z"/>
	</g>
	<g>
		<path class="st12" d="M128.6,208.4c-0.2,0.1-0.4,0-0.7-0.1c-0.2-0.1-0.4-0.2-0.6-0.3c-0.1-0.1-0.2-0.2-0.4-0.3
			c-0.1-0.1-0.2-0.2,0,0l-0.2-0.2c-0.6-0.5-0.8-1-0.9-1.4c-0.1-0.4-0.1-0.7,0-0.8c0.1-0.1,0.4,0,0.7,0.2c0.3,0.2,0.6,0.6,1,0.9
			l0.1,0.1c0.2,0.2,0.2,0.2,0.2,0.3c0.1,0.1,0.1,0.2,0.2,0.2c0.1,0.2,0.3,0.4,0.4,0.5C128.8,208,128.8,208.3,128.6,208.4z"/>
	</g>
	<g>
		<path class="st12" d="M131.6,213.6c-0.3,0.2-1-0.1-1.6-0.9c-0.6-0.8-0.7-1.7-0.4-1.8c0.4-0.1,0.9,0.3,1.4,1
			C131.6,212.5,131.9,213.3,131.6,213.6z"/>
	</g>
	<g>
		<path class="st12" d="M133.1,218.6c-0.4-0.1-0.6-0.5-0.6-1c-0.1-0.5,0.1-1.1,0.4-1.2c0.4-0.1,0.8,0.3,0.9,1
			C133.9,218.1,133.5,218.7,133.1,218.6z"/>
	</g>
	<g>
		<path class="st12" d="M128.1,223.9c-0.1-0.4,0.5-0.9,1.4-1.5c0.9-0.7,1.9-0.9,2.1-0.6c0.2,0.3-0.4,1-1.3,1.7
			C129.3,224.1,128.2,224.2,128.1,223.9z"/>
	</g>
	<g>
		<path class="st12" d="M126.1,225.1c-0.1-0.4,0.2-0.8,0.6-0.9c0.5-0.2,1-0.1,1.1,0.2c0.1,0.3-0.1,0.8-0.6,1
			C126.7,225.6,126.2,225.4,126.1,225.1z"/>
	</g>
	<g>
		<path class="st12" d="M138.8,164.2c0.1,0-0.1,0.9-0.2,2.3c0,0.7-0.1,1.6,0.3,2.4c0.2,0.4,0.4,0.8,0.8,1c0.4,0.3,0.9,0.4,1.4,0.5
			l0,0l0,0c1.5,0.4,3.6,0.1,4.8-1.2c0.6-0.6,1-1.4,1.2-2.2c0.1-0.4,0.2-0.8,0.3-1.3c0-0.1,0-0.1,0-0.1l0,0c0,0,0,0,0,0l0,0l-0.2,0
			l-0.3,0c-0.2,0-0.4-0.1-0.6-0.1c-0.4-0.1-0.8-0.2-1.2-0.3c-0.7-0.2-1.4-0.4-2.1-0.5c-0.6-0.2-1.2-0.3-1.7-0.4
			c-0.5-0.1-0.9-0.1-1.3-0.2c-0.7,0-1.1,0-1.1-0.1c0-0.1,0.4-0.2,1.1-0.4c0.4,0,0.8-0.1,1.4-0.1c0.5,0,1.1,0.1,1.8,0.2
			c0.7,0.1,1.4,0.2,2.1,0.4c0.4,0.1,0.8,0.1,1.1,0.2c0.2,0,0.4,0.1,0.6,0.1c0.2,0,0.5,0,0.8,0l0.6,0l0.3,0l0.1,0l0,0.1l0,0.2
			c0,0.4-0.1,0.8-0.1,1.2c-0.1,0.5-0.1,0.9-0.3,1.4c-0.2,1-0.7,2-1.5,2.8c-0.8,0.9-2,1.4-3,1.6c-1.1,0.2-2.2,0.2-3.1-0.2l0.1,0
			c-0.7-0.2-1.3-0.4-1.9-0.8c-0.5-0.4-0.9-1-1.1-1.5c-0.4-1.1-0.2-2.1-0.1-2.8C138.2,164.9,138.7,164.2,138.8,164.2z"/>
	</g>
	<g>
		<path class="st9" d="M182.5,169.7c0.1,0.1-0.1,0.3-0.4,0.6c-0.4,0.3-0.9,0.8-1.8,1.1c-0.4,0.2-0.9,0.3-1.5,0.3
			c-0.3,0-0.6,0-0.9-0.1c-0.3,0-0.6-0.1-0.8-0.2c-0.3-0.1-0.6-0.2-0.9-0.3c-0.3-0.1-0.6-0.2-0.9-0.4l-0.4-0.3l-0.2-0.1
			c-0.1-0.1-0.2-0.2-0.2-0.2c-0.3-0.3-0.5-0.6-0.7-0.9c-0.4-0.7-0.5-1.4-0.5-2.1c0-0.3,0-0.7,0.1-1c0-0.2,0.1-0.3,0.1-0.5
			c0-0.2,0.1-0.3,0.2-0.5c0.5-1.3,1.4-1.9,2.2-2.4c1.6-0.8,2.6-1,2.6-0.8c0.1,0.2-0.9,0.7-2.1,1.6c-0.6,0.5-1.3,1.1-1.5,2
			c-0.2,0.9-0.2,2.1,0.2,3c0.1,0.2,0.3,0.4,0.4,0.6c0.1,0.1,0.4,0.3,0.6,0.4c0.2,0.2,0.5,0.3,0.7,0.4c0.2,0.1,0.5,0.2,0.7,0.3
			c1,0.4,1.8,0.4,2.5,0.2C181.5,170.1,182.4,169.5,182.5,169.7z"/>
	</g>
	<g>
		<path class="st9" d="M181,166.6c0.2,0.4-0.9,1-1.6,2c-0.2,0.2-0.4,0.5-0.6,0.8c-0.2,0.2-0.3,0.5-0.5,0.6c-0.3,0.3-0.4,0.6-0.6,0.6
			c-0.1,0-0.2-0.1-0.2-0.2c-0.1-0.2-0.1-0.4-0.1-0.7c0-0.3,0.1-0.6,0.3-0.9c0.1-0.3,0.3-0.6,0.6-1c0.5-0.7,1.3-1.1,1.7-1.2
			C180.6,166.4,180.9,166.4,181,166.6z"/>
	</g>
	<g>
		<path class="st9" d="M178.7,164.7c0.3,0.3-0.7,1.4-1.9,2.5l-0.2,0.2c0,0-0.1,0-0.1,0l-0.1,0.1c-0.1,0.2-0.3,0.3-0.4,0.4
			c-0.3,0.2-0.4,0.4-0.6,0.6c-0.3,0.3-0.3,0.5-0.5,0.7c-0.1,0-0.2,0-0.3-0.2c-0.1-0.2-0.1-0.5,0-0.9c0.1-0.3,0.3-0.7,0.5-1
			c0.1-0.1,0.2-0.3,0.3-0.5l0.1-0.1c0.1-0.1,0.1-0.1,0.2-0.2l0.2-0.2C177.3,165,178.5,164.4,178.7,164.7z"/>
	</g>
	<g>
		<path class="st9" d="M90,181.2c0-0.2,0-0.4,0.2-0.9c0-0.1,0.1-0.2,0.1-0.2c0,0,0,0,0-0.1c0-0.1,0-0.2,0-0.4c0-0.1,0-0.3,0-0.5
			l0-0.3c0-0.1,0,0,0,0l0-0.1c-0.3-1.3-1.2-2.4-0.9-2.6c0.1-0.1,0.5,0,0.9,0.3c0.4,0.4,1,1,1.3,2l0.1,0.2l0,0.3c0,0.1,0,0.2,0,0.3
			c0,0.2,0,0.4-0.1,0.6c0,0.2-0.1,0.4-0.2,0.6c-0.1,0.1-0.1,0.2-0.2,0.3c-0.1,0.1-0.1,0.1-0.2,0.1c-0.2,0.2-0.4,0.3-0.6,0.4
			C90.1,181.3,90,181.3,90,181.2z"/>
	</g>
	<g>
		<path class="st9" d="M93.6,180.9c-0.1-0.1-0.1-0.5,0-0.9c0-0.5,0.1-0.9,0-1.5c-0.3-1.1-1-2.2-0.7-2.5c0.1-0.1,0.5,0,0.9,0.3
			c0.4,0.4,0.9,0.9,1.1,1.8c0,0.2,0.1,0.5,0.1,0.7c0,0.2,0,0.4-0.1,0.6c-0.1,0.4-0.3,0.7-0.4,0.9C94.1,180.9,93.8,181,93.6,180.9z"
			/>
	</g>
	<g>
		<path class="st9" d="M97.9,179.2c-0.2-0.1-0.1-0.4-0.2-0.8c0-0.4-0.2-0.8-0.6-1.3c-0.8-1-1.7-1.8-1.5-2.1c0.1-0.3,1.5,0,2.6,1.4
			c0.2,0.4,0.4,0.7,0.5,1.1c0.1,0.4,0.1,0.8-0.1,1.1C98.4,179.1,98,179.3,97.9,179.2z"/>
	</g>
	<path class="st13" d="M172.8,130.2c-2.3-7-7.6-7.6-10.8-6.3c0.1,0.6,0.3,1.3,0.6,2.1C163.9,130,169,131.9,172.8,130.2z"/>
	<g>
		<path class="st14" d="M130,148.7c0.2,0,0.1,1.3-0.6,3.2c-0.3,0.9-0.9,2-1.6,3.1c-0.7,1.1-1.7,2.2-2.8,3.3c-1.1,1-2.4,1.8-3.6,2.4
			c-0.6,0.3-1.2,0.5-1.8,0.7c-0.6,0.2-1.1,0.3-1.6,0.4c-2,0.3-3.2-0.1-3.2-0.2c0-0.2,1.2-0.2,3-0.7c0.4-0.1,0.9-0.3,1.5-0.5
			c0.5-0.2,1-0.4,1.6-0.7c1.1-0.6,2.2-1.3,3.3-2.3c1.1-1,1.9-2,2.7-3c0.7-1,1.3-2,1.7-2.8C129.4,149.8,129.8,148.6,130,148.7z"/>
	</g>
	<g>
		<path class="st14" d="M151.2,149.9c0.1,0.1-0.3,0.8-1.2,1.5c-0.9,0.8-2.6,1.4-4.5,1.5c-1.9,0.1-3.5-0.7-4.5-1.2
			c-1-0.7-1.5-1.2-1.4-1.3c0.1-0.2,0.8,0.1,1.8,0.5c1.1,0.3,2.5,0.8,4.1,0.7c1.6,0,3-0.5,4-1C150.5,150.2,151.1,149.8,151.2,149.9z"
			/>
	</g>
	<g>
		<path class="st9" d="M122,126.2c0,0.1-0.8,0.4-2.1,0c-0.6-0.2-1.4-0.6-2-1.3c-0.1-0.2-0.3-0.4-0.4-0.6c-0.1-0.3-0.3-0.6-0.2-0.9
			c-0.1-0.7,0.3-1.2,0.6-1.7l0,0.1c0.3-0.6,0.9-0.9,1.3-1c0.4-0.2,0.9-0.3,1.1-0.5c0,0,0,0,0,0c0,0,0.1-0.1,0-0.1c0,0,0-0.1,0-0.1
			c0-0.1-0.1-0.3-0.3-0.5c-0.4-0.3-0.8-0.6-1.3-0.9c-0.5-0.2-1-0.5-1.4-0.6c-0.4-0.1-0.8-0.1-1.2,0c-0.7,0.2-1.2,0.6-1.5,0.9
			c-0.3,0.3-0.5,0.5-0.6,0.5c-0.1,0,0-0.3,0.2-0.8c0.2-0.5,0.7-1.2,1.7-1.5c0.5-0.2,1-0.2,1.6-0.2c0.6,0.1,1.1,0.3,1.7,0.5
			c0.6,0.3,1.1,0.5,1.7,1.1c0.3,0.3,0.6,0.6,0.7,1.1c0,0.3,0,0.6-0.1,0.8c0,0.1-0.1,0.2-0.2,0.3c-0.1,0.1-0.2,0.3-0.3,0.3
			c-0.6,0.4-1,0.5-1.4,0.6c-0.4,0.1-0.6,0.3-0.7,0.5l0,0.1c-0.2,0.3-0.4,0.7-0.4,0.9c-0.1,0.1,0.1,0.3,0.1,0.4
			c0.1,0.2,0.2,0.3,0.3,0.5c0.4,0.6,1,1,1.5,1.3C121.2,126,122,126,122,126.2z"/>
	</g>
	<g>
		<path class="st15" d="M110.3,81.4c0.1,0,0.3,0.4,0.3,1.1c0,0.7-0.2,1.9-0.9,3c-0.7,1.1-1.9,2.4-3.8,2.8c-1,0.2-2.1-0.1-3-0.7
			c-0.9-0.7-1.4-1.8-1.5-2.9c0-0.3,0-0.6,0-0.9c0-0.1,0-0.3,0-0.4c0-0.1,0.1-0.4,0.1-0.3c0-0.2,0-0.1,0-0.1c0-0.1,0,0,0,0
			c0,0,0,0-0.1,0c-0.2,0.1-0.3,0.2-0.5,0.2c-0.3,0.1-0.6,0.3-1,0.4c-1.3,0.5-2.4,0.8-3.4,1c-1.9,0.3-3,0.6-3.1,0.5
			c-0.1-0.1,1-0.7,2.9-1.3c0.9-0.3,2-0.7,3.2-1.2c0.3-0.1,0.6-0.3,0.9-0.4c0.2-0.1,0.3-0.2,0.4-0.2c0.3-0.2,0.6-0.4,0.9-0.6
			c0.6-0.4,1.3-0.8,1.9-1.3c0.6-0.4,1.2-0.8,1.8-1.2c-0.3,0.5-0.7,1-1,1.4l-0.5,0.7l-0.4,0.5l-0.4,0.5c-0.1,0.2-0.3,0.4-0.3,0.5
			l-0.2,0.7c-0.1,0.3-0.1,0.3-0.1,0.4c0,0.1,0,0.2,0,0.3c0,0.2,0,0.4,0,0.7c0.1,0.8,0.4,1.6,1,2c0.6,0.4,1.3,0.6,2,0.5
			c1.4-0.2,2.6-1.2,3.3-2.1c0.7-0.9,1.1-1.9,1.2-2.5C110.2,81.8,110.2,81.4,110.3,81.4z"/>
	</g>
	<g>
		<path class="st15" d="M158.8,71.9c0-0.1,0.4,0,1.1,0.2c0.2,0,0.4,0.1,0.6,0.1c0.2,0,0.4,0,0.7,0c0.2,0,0.5,0,0.8,0l0.2,0
			c0.1,0,0.1,0,0.2,0c0.2,0,0.3-0.1,0.5-0.1c1.3-0.3,2.9-0.6,4.1-1.7c0.6-0.6,1.1-1.3,1.2-2.2c0.1-0.4,0.1-0.9,0-1.3
			c-0.1-0.2-0.2-0.4-0.3-0.5l0-0.1c-0.1-0.1-0.1,0-0.1-0.1l0,0l-0.1,0l-0.2-0.1l-0.6-0.2l-0.3-0.1c-0.1,0-0.4-0.1-0.6-0.1l-1.3-0.3
			l0.5-0.1l0.1,0l0.2-0.1l0.9-0.2c0.7-0.2,1.4-0.4,2-0.5c0.8-0.2,1.4-0.4,2.2-0.6c1.4-0.5,2.7-1.1,3.7-2.2c1.1-1.1,1.7-2.5,1.9-3.9
			c0.2-1.4-0.3-2.8-1-4c-1.3-2.4-3.3-4.1-5.2-4.9c-1.9-0.8-3.7-0.5-4.8-0.2c-1.2,0.3-1.8,0.6-1.8,0.4c0-0.1,0.5-0.5,1.7-0.9
			c1.1-0.4,3.1-0.9,5.3-0.2c2.2,0.8,4.5,2.5,6,5.2c0.2,0.3,0.3,0.7,0.5,1c0.2,0.4,0.3,0.7,0.4,1.1c0.1,0.4,0.2,0.8,0.2,1.2
			c0,0.4,0.1,0.9,0,1.3c-0.1,1.7-0.9,3.4-2.2,4.7c-1.2,1.3-2.8,2-4.3,2.5c-0.7,0.2-1.5,0.4-2.1,0.6c0,0-0.1,0-0.1,0c0,0,0,0,0.1,0.1
			c0.2,0.3,0.4,0.6,0.4,0.9c0.2,0.6,0.2,1.3,0,1.8c-0.1,0.3-0.1,0.6-0.2,0.8c-0.1,0.3-0.3,0.5-0.4,0.7c-0.1,0.2-0.3,0.4-0.5,0.6
			l-0.3,0.3l-0.3,0.2c-0.2,0.2-0.4,0.3-0.6,0.5c-0.2,0.1-0.4,0.2-0.6,0.3c-0.4,0.2-0.8,0.3-1.2,0.5c-0.4,0.1-0.8,0.2-1.2,0.3
			c-0.4,0.1-0.7,0.1-1.1,0.2c-0.2,0-0.3,0-0.5,0.1c-0.1,0-0.2,0-0.3,0l-0.2,0c-0.3,0-0.6,0-0.9-0.1c-0.3-0.1-0.5-0.1-0.7-0.1
			c-0.2-0.1-0.4-0.1-0.6-0.2C159.1,72.2,158.8,71.9,158.8,71.9z"/>
	</g>
	<g>
		<path class="st12" d="M98.1,230.2c0,0.1-0.3,0.2-0.9,0.2c-0.6,0-1.4-0.2-2.3-0.6c-1.8-0.8-3.9-2.5-5.8-4.8c-0.8-1-1.7-2-2.4-3.1
			c-0.4-0.5-0.6-1-0.9-1.5c-0.2-0.5-0.4-1-0.6-1.4l0,0c-0.4-1-0.8-1.8-0.9-2.4c-0.1-0.6-0.1-1,0-1c0.1,0,0.3,0.3,0.5,0.8
			c0.3,0.5,0.7,1.2,1.3,2.1l0,0c0.2,0.4,0.4,0.8,0.7,1.3c0.3,0.4,0.5,0.9,0.9,1.3c0.6,0.9,1.5,1.9,2.4,2.9c1.8,2.2,3.7,3.9,5.2,4.8
			C97,230,98.1,230,98.1,230.2z"/>
	</g>
	<g>
		<path class="st12" d="M136.3,232.4c0.1,0,0.2,0.1,0.2,0.3l0,0.1l-0.2,0.1c-0.5,0.3-1.4,0-2.2-0.7c-0.2-0.2-0.4-0.3-0.6-0.6
			c-0.1-0.1-0.1-0.1-0.1-0.1c0,0-0.1-0.1-0.1-0.1c-0.1-0.1-0.2-0.2-0.3-0.3c-0.4-0.3-0.9-0.7-1.3-1.1c-0.6-0.5-1.1-1-1.6-1.5
			c-0.5-0.5-0.8-1-1.1-1.5c-0.6-0.9-0.7-1.6-0.6-1.6c0.3-0.2,1.7,1.8,4.1,3.6c0.5,0.4,0.9,0.8,1.3,1.2c0.1,0.1,0.2,0.2,0.3,0.3
			l0.2,0.2c0.1,0.1,0.1,0.2,0.2,0.2c0.1,0.2,0.3,0.4,0.4,0.5c0.5,0.6,1,0.9,1.3,1c-0.1,0.1-0.1,0.2-0.2,0.2
			C136.1,232.5,136.2,232.4,136.3,232.4z"/>
	</g>
</g>
</svg>
