<svg id="Layer_1" data-name="Layer 1" xmlns="http://www.w3.org/2000/svg" viewBox="0 0 141.49 217.2"><defs><style>.cls-1{fill:#fbb03b;}.cls-2{fill:#f7cb9c;}.cls-3{fill:#56575c;}.cls-4{fill:#824c3f;}.cls-5{fill:#fb8135;}.cls-6{fill:#f2b87b;}.cls-7{fill:#b34b3d;}.cls-8{fill:#fc8271;}.cls-9{fill:#e8955d;}.cls-10{fill:#42210b;}.cls-11{fill:#613328;}.cls-12{fill:#6b6c73;}.cls-13{fill:#ba681c;}</style></defs><title>anak2</title><path class="cls-1" d="M173.83,151.75c1.17,1.17,3,2.17,4.67.34s10.33-7.67,15-7.5c3.67-.34.17-4-1.83-7.17s-13.34-12.17-23-9.67C159,130.42,173.17,151.42,173.83,151.75Z" transform="translate(-74.38 -34.14)"/><path class="cls-2" d="M97.08,210.84c-3.5-2.5-9.5-10.25-12.5-12.25s-6.75,1.25-9.5-.25,3-8,10.25-12.75,10-8.25,21.25,6.5C110.33,197.59,97.08,210.84,97.08,210.84Z" transform="translate(-74.38 -34.14)"/><path class="cls-2" d="M133.17,223.75c-.75,4.75-.59,23.34.41,25.84s6.25,1.75,12.25,1.25,13.25-2.5,13-4.25-4.75-3.25-5.75-3.5-1.5-3-.75-5.25,3.09-16.34,1.84-22.59S135.17,217.75,133.17,223.75Z" transform="translate(-74.38 -34.14)"/><path class="cls-3" d="M111.58,165.34c-4,5.75-6.5,19-1.25,30.25-3-1.75-3.75-3.5-3.75-3.5a24.07,24.07,0,0,0-9.5,18.75c9.5,8.75,22.25,6.75,25.5,2.25,6.75,5.5,10.25,4,10,13.75,7-5.25,19-6,22.5-6.25.75-7-1.5-12.25-9-21,11.5-11.5,13.75-20.25,13.75-20.25Z" transform="translate(-74.38 -34.14)"/><path class="cls-4" d="M110.33,114.09c-6,4.75,5,13,24,12s39.25-6.5,49.5-15.5-34.75-20.5-34.75-20.5Z" transform="translate(-74.38 -34.14)"/><path class="cls-5" d="M107.83,162.59c-1.16-2.84-.16-3.17,3.34-7.34s22.14-31.68,26.79-33.52c10.5-4.17,18.17,0,23.83.66s14.84,2.34,14.21,15.2c-.65,13.32-6.33,35.83-7.83,40.33s-6.34,5.67-10.5,5.83-26.67-1.83-35.17-7S110.5,166.75,107.83,162.59Z" transform="translate(-74.38 -34.14)"/><path class="cls-6" d="M150.5,118.25a12,12,0,0,0-.33,10.67c1.66,3.67,11.79,10.75,17.33,4,3.83-4.67,9.33-15.17,9.33-15.17Z" transform="translate(-74.38 -34.14)"/><path class="cls-2" d="M134.83,111.92c7.67,9.33,31.9,18.52,56.17,9.67,22.83-8.34,15.83-28,13.83-29.34,0-26,2-47.33-34.66-46.33S114.5,81.25,134.83,111.92Z" transform="translate(-74.38 -34.14)"/><path class="cls-7" d="M184,100.17c-2.67.74-7.42,1.1-9.43,1.45s-2,2.3.82,6.79,10.1,4.81,13.23.42,2.33-9.37,1.44-9.57S188.21,99,184,100.17Z" transform="translate(-74.38 -34.14)"/><path class="cls-8" d="M187.22,110.3c-4.25-6.8-10-6-13-3.93.31.61.69,1.29,1.16,2C177.81,112.32,183.68,113.06,187.22,110.3Z" transform="translate(-74.38 -34.14)"/><path class="cls-9" d="M188,95.25c-.09,0-.22,0-.37-.2a2.82,2.82,0,0,1-.25-.3,3.8,3.8,0,0,1-.34-.35,2.72,2.72,0,0,0-2.1-1,3.07,3.07,0,0,0-1,.27l-.12.05a3.52,3.52,0,0,0-1.42,1c-.37.39-.65.6-.77.52s-.09-.41.1-.94a3.12,3.12,0,0,1,1.7-1.82l-.12.05a3.65,3.65,0,0,1,1.5-.5,3.14,3.14,0,0,1,1.1.13,3.78,3.78,0,0,1,.87.48,3.67,3.67,0,0,1,1,1.22c.09.2.16.38.22.54s.06.31.07.43S188.08,95.22,188,95.25Z" transform="translate(-74.38 -34.14)"/><path class="cls-10" d="M163.71,89.7c2.75-1,4.45,4.71,2.16,5.93-1.93,1-3.51-.86-3.75-2.57C162,91.84,162.58,90.12,163.71,89.7Z" transform="translate(-74.38 -34.14)"/><path class="cls-10" d="M163.84,90.18c2.12-.66,2.88,2.72,2.45,4.17a1.55,1.55,0,0,1-1.18,1c-.9.27-1.65-.52-2.07-1.18-.79-1.26-.53-3.41.92-4.08.58-.27.08-1.13-.5-.86-4.24,2-.32,9.72,3.2,6.38,2.08-2,0-7.41-3.08-6.43C163,89.41,163.22,90.37,163.84,90.18Z" transform="translate(-74.38 -34.14)"/><path class="cls-10" d="M196,85.62c2.75-1,4.45,4.71,2.16,5.93-1.93,1-3.51-.86-3.75-2.57C194.21,87.76,194.83,86,196,85.62Z" transform="translate(-74.38 -34.14)"/><path class="cls-10" d="M196.09,86.1c2.12-.66,2.88,2.72,2.45,4.17a1.52,1.52,0,0,1-1.18,1c-.9.27-1.65-.52-2.07-1.18-.79-1.26-.53-3.4.92-4.07.58-.27.08-1.13-.5-.87-4.24,2-.32,9.73,3.2,6.39,2.08-2,0-7.41-3.08-6.44C195.21,85.33,195.47,86.29,196.09,86.1Z" transform="translate(-74.38 -34.14)"/><path class="cls-4" d="M138.58,97.59c-7.25,4.5-7,10.75,5,3s30.75-28,32.5-50.5c9.5-3.5,25.25,2.75,28,23.25,1.25,12.25,3.5,9.5,4.25,4s-1-14.5-1-14.5c6.25,6.75,10,7.25,8-2.25s-8-20.5-22.25-20.25c-12-9.5-32.25-6.25-50.75-2.25s-28,2-35,.5-12.25-1.25-3.75,8.25c-9.5-4.75-11-1-15.5,5.75s-20.25,37.75,13,50.75c-12.5,4.5-11.5,10,.25,7.75-2,3.75,4.25,6,12,5.25s16.25-6.5,16.25-6.5C116.83,102.34,127.83,89.09,138.58,97.59Z" transform="translate(-74.38 -34.14)"/><path class="cls-2" d="M137.71,110.34c-5.5,3.62-11.38,1.87-16-4.38s5.37-17.25,15.62-8.37c-8.37,5.37-2.37,9.25,1,8C137.46,106.09,137.71,110.34,137.71,110.34Z" transform="translate(-74.38 -34.14)"/><path class="cls-11" d="M162.75,65.78c.13.38-1.81,1.25-4.05,2.4s-3.81,2.5-4.11,2.22,1.08-2.05,3.48-3.38S162.65,65.47,162.75,65.78Z" transform="translate(-74.38 -34.14)"/><path class="cls-11" d="M200,65.59c-.09.16-.54.08-1.2-.18s-1.48-.7-2.37-1.06l-.69-.3-.62-.26c-.19-.09-.31-.1-.45-.16l-.51,0c-.69,0-1.18-.17-1.16-.36s.38-.38,1.06-.57l.61-.14a3,3,0,0,1,.8.09,7,7,0,0,1,.73.22,7.06,7.06,0,0,1,.73.28,9,9,0,0,1,2.36,1.49C199.81,65.07,200.09,65.43,200,65.59Z" transform="translate(-74.38 -34.14)"/><path class="cls-9" d="M133.67,106.25c0,.08-.2.27-.71.48a3.9,3.9,0,0,1-2.32,0,4.31,4.31,0,0,1-2.73-2.24,2.91,2.91,0,0,1-.11-2.31,4,4,0,0,1,1.6-1.76c.35-.24.68-.37.94-.52.08,0,0,0,.06,0a0,0,0,0,0,0,0h0l-.42,0h-1.68a6.38,6.38,0,0,0-1.36.14c-1.63.38-2.41,1.29-2.57,1.13s.06-.33.4-.75a4.63,4.63,0,0,1,1.91-1.27,6.06,6.06,0,0,1,1.56-.34l.83-.07.9,0h.48a8.43,8.43,0,0,1,.86.11,1.49,1.49,0,0,1,.6.39,1,1,0,0,1,.2.72,1.34,1.34,0,0,1-.35.69,3.73,3.73,0,0,1-.75.54c-.32.19-.63.31-.85.48a2.83,2.83,0,0,0-1.12,1.14,1.73,1.73,0,0,0,0,1.34,3.71,3.71,0,0,0,1.94,1.85,4.57,4.57,0,0,0,1.9.37C133.34,106.19,133.63,106.16,133.67,106.25Z" transform="translate(-74.38 -34.14)"/><path class="cls-11" d="M204.83,44.42c-.06.08-.48-.12-1.16-.44-.39-.12-.81-.31-1.36-.47s-1.16-.39-1.86-.66l.05,0-2-.49c-.73-.13-1.52-.22-2.33-.34a21.81,21.81,0,0,0-5.31.35c-3.9.67-7.15,2.4-9.65,3.35s-3.94,1.69-4,1.51,1.28-1.1,3.65-2.36c1.18-.6,2.59-1.32,4.22-2a23.87,23.87,0,0,1,5.58-1.74,20,20,0,0,1,5.67-.28c.86.16,1.69.29,2.45.47l2.1.68h0c1.21.61,2.34,1.06,3,1.51S204.89,44.36,204.83,44.42Z" transform="translate(-74.38 -34.14)"/><path class="cls-11" d="M152.17,82.09c.14.11-.58,1.29-1.87,3.12-.67.89-1.51,1.92-2.45,3.07s-2.06,2.32-3.27,3.52c-2.41,2.41-4.68,4.46-6.28,6s-2.66,2.42-2.8,2.3.68-1.23,2.13-3,3.63-3.88,6-6.27c1.2-1.19,2.28-2.37,3.3-3.41s1.88-2,2.64-2.85C151,83,152,82,152.17,82.09Z" transform="translate(-74.38 -34.14)"/><path class="cls-2" d="M128,121.92c-5.5-1.5-16.67-5.67-27.17,3s-14.16,23.67-15.16,25.67-2.5-.5-5,2,2,5.83,2,5.83a4.74,4.74,0,0,0,4.16,1.83c2.5,2,7.67,1,10.67-2.66s10.33-14.5,12.17-15.5,7.66,3.16,11.66,2.66S128,121.92,128,121.92Z" transform="translate(-74.38 -34.14)"/><path class="cls-2" d="M178.17,152.25c.83,2.17,1.66,3.67-2.17,4.84s-6.83,2.83-8.33,2.16-3.67-4.5-6.34-4.16-5,3.16-4.66,4.66a8.27,8.27,0,0,0,2.5,11.5c3.66,2.5,5.83,1.84,7.16,0,4.17,1.67,15.5-1.33,21.17-2.83s12.5-7.67,10.17-14.33a28.54,28.54,0,0,0-5.21-9.5C185,145.59,178.17,152.25,178.17,152.25Z" transform="translate(-74.38 -34.14)"/><path class="cls-1" d="M122.17,118.75c-2.93,1.13-10,9.81-9,23.48,0,3.17,3.46,4.68,11.83,4.33,24-1,27.33-18.83,18.87-24.31C139.26,119.29,124.33,117.92,122.17,118.75Z" transform="translate(-74.38 -34.14)"/><path class="cls-12" d="M125,214.92c-.12.13-1.39-.72-3.34-2.28-.49-.38-1-.83-1.55-1.33l-.85-.78c-.28-.27-.55-.58-.84-.89a39.93,39.93,0,0,1-3.42-4.18c-.27-.4-.56-.79-.8-1.19l-.68-1.22-1.26-2.23a23.13,23.13,0,0,1-1.06-2.11c-.31-.68-.6-1.31-.84-1.88-.39-1.15-.77-2.11-.94-2.79s-.17-1.1-.09-1.12.29.32.57.94.8,1.47,1.33,2.62l1,1.75c.34.62.69,1.29,1.14,2l1.33,2.21c.22.37.44.76.67,1.14s.5.75.76,1.13c1.07,1.48,2.2,3,3.25,4.13.26.31.5.61.76.89l.78.8c.49.52,1,1,1.41,1.42C124.09,213.67,125.17,214.78,125,214.92Z" transform="translate(-74.38 -34.14)"/><path class="cls-12" d="M150.64,205.43c-.18.11-.91-.86-2.18-2.31a30.12,30.12,0,0,0-2.34-2.41c-.91-.88-2-1.8-3.05-2.92-4.11-4.41-7.12-8.11-6.88-8.38s3.8,3.14,7.83,7.47c1,1.09,2,2,2.94,3a18.85,18.85,0,0,1,2.23,2.71C150.32,204.2,150.77,205.35,150.64,205.43Z" transform="translate(-74.38 -34.14)"/><path class="cls-7" d="M100.67,185.22c-6.64-6.4-9.56-3.42-15.34.37-7.25,4.75-13,11.25-10.25,12.75s6.5-1.75,9.5.25a18.6,18.6,0,0,1,2.53,2.2l.06,0c3.16-.33,3-6.16,1.83-7.66S95.7,185.48,100.67,185.22Z" transform="translate(-74.38 -34.14)"/><path class="cls-7" d="M139.17,246.09c-1.5.8-4.28-.78-6.4-1.5a26.53,26.53,0,0,0,.81,5c1,2.5,6.25,1.75,12.25,1.25s13.25-2.5,13-4.25-4.75-3.25-5.75-3.5-1.5-3-.75-5.25C145.67,236.92,141.33,244.92,139.17,246.09Z" transform="translate(-74.38 -34.14)"/><path class="cls-9" d="M89.46,155.29c.1.16-.22.58-.83,1.16a9,9,0,0,1-2.84,1.85,5.67,5.67,0,0,1-1,.29,3.14,3.14,0,0,1-.51.09h-.45a4.53,4.53,0,0,1-.83,0,3.25,3.25,0,0,1-.73-.15,4.31,4.31,0,0,1-.58-.2,4.36,4.36,0,0,1-.39-.26c-.21-.16-.29-.29-.25-.37s.2-.12.43-.11l.4,0h.53a3.42,3.42,0,0,0,.62,0,6.47,6.47,0,0,0,.72-.07l.4,0a3.47,3.47,0,0,0,.34-.1,6.75,6.75,0,0,0,.8-.26,28.53,28.53,0,0,0,2.77-1.38C88.83,155.31,89.36,155.14,89.46,155.29Z" transform="translate(-74.38 -34.14)"/><path class="cls-9" d="M91.46,156.46c.13.13-.07.57-.52,1.17a8.89,8.89,0,0,1-2.15,2.05,5,5,0,0,1-3,.84c-.81-.13-1.24-.4-1.2-.56s.52-.27,1.16-.38a7.92,7.92,0,0,0,2.33-1C89.76,157.39,91.18,156.17,91.46,156.46Z" transform="translate(-74.38 -34.14)"/><path class="cls-9" d="M94.46,156.71c.31.15-.21,1.79-1.74,3.2a5.12,5.12,0,0,1-2.36,1.26c-.71.11-1.15,0-1.15-.21s.35-.38.83-.67a12.66,12.66,0,0,0,1.8-1.35C93.16,157.72,94.13,156.53,94.46,156.71Z" transform="translate(-74.38 -34.14)"/><path class="cls-9" d="M162.08,159.09c-.1.17-.5.08-1.06,0a4.21,4.21,0,0,0-2,.46l-1.14.6-.5.26-.41.24c-.51.29-.85.51-1,.4s-.05-.55.39-1.1l.38-.43.5-.4a10.48,10.48,0,0,1,1.22-.76,3.43,3.43,0,0,1,2.81-.17C161.93,158.55,162.17,159,162.08,159.09Z" transform="translate(-74.38 -34.14)"/><path class="cls-9" d="M160.46,161.09c0,.19-.34.43-.83.89a11.88,11.88,0,0,0-1.69,2.1c-.28.43-.53.89-.75,1.31a7.3,7.3,0,0,0-.46,1.07c-.18.59-.1,1-.27,1.13s-.62-.31-.66-1.23a4.42,4.42,0,0,1,.28-1.45,7.24,7.24,0,0,1,.75-1.54,6,6,0,0,1,2.27-2.16C159.88,160.85,160.43,160.93,160.46,161.09Z" transform="translate(-74.38 -34.14)"/><path class="cls-9" d="M162.71,165c0,.2-.29.38-.67.78s-.9,1-1.49,1.74a10.69,10.69,0,0,0-1.38,1.72c-.23.44-.27.84-.46.89s-.49-.33-.44-1.12a4.61,4.61,0,0,1,1.27-2.34,6,6,0,0,1,2-1.67C162.2,164.66,162.72,164.79,162.71,165Z" transform="translate(-74.38 -34.14)"/><path class="cls-9" d="M165.33,167.34c.27.26-.13,1-.63,1.66-.23.33-.45.58-.57.76s-.24.37-.42.45-.42-.1-.51-.55a2,2,0,0,1,.43-1.44C164.3,167.36,165.08,167.09,165.33,167.34Z" transform="translate(-74.38 -34.14)"/><path class="cls-9" d="M167.58,171.34c0,.17-.22.34-.64.38a2.34,2.34,0,0,1-1.47-.51c-.94-.75-1.17-1.67-.89-1.87s1,.29,1.69.82l.88.65C167.38,171,167.58,171.15,167.58,171.34Z" transform="translate(-74.38 -34.14)"/><path class="cls-13" d="M172.08,136c.08,0,0,.36-.37.91a8.69,8.69,0,0,1-1.86,1.84,18.53,18.53,0,0,1-3.25,2.09,10.46,10.46,0,0,1-4.75.85,13.28,13.28,0,0,1-4.7-.91,11.43,11.43,0,0,1-3.33-2.05c-1.65-1.47-2.35-2.62-2.24-2.73s1.12.79,2.82,2a12.88,12.88,0,0,0,7.48,2.38,10.35,10.35,0,0,0,4.24-.64,28.14,28.14,0,0,0,3.2-1.74,15.64,15.64,0,0,0,2-1.42C171.73,136.13,172,135.92,172.08,136Z" transform="translate(-74.38 -34.14)"/><path class="cls-13" d="M126,121.89c.05.09-.19.35-.6.77a16.16,16.16,0,0,0-1.48,2.06,31.62,31.62,0,0,0-4.24,16.12c.07,2.16.36,3.49.15,3.55s-.76-1.22-1.08-3.48a23.73,23.73,0,0,1,.69-8.75,23.42,23.42,0,0,1,3.71-8,8.93,8.93,0,0,1,1.91-1.91C125.58,121.94,125.92,121.82,126,121.89Z" transform="translate(-74.38 -34.14)"/><path class="cls-13" d="M190.71,140.71c0,.18-.77.57-2.11,1-.66.28-1.45.56-2.32.89s-1.82.71-2.72,1.24c-.47.25-.93.46-1.37.7l-1.27.76c-.8.47-1.5.92-2.07,1.31-1.13.79-1.73,1.43-1.89,1.31s.22-1,1.29-2a16.76,16.76,0,0,1,2-1.61l1.24-.84c.45-.27,1-.51,1.45-.77a19.21,19.21,0,0,1,2.91-1.21c.92-.28,1.77-.48,2.47-.64C189.77,140.6,190.66,140.54,190.71,140.71Z" transform="translate(-74.38 -34.14)"/><path class="cls-11" d="M111.46,106.84c.07.17-.56.6-1.59,1.2s-2.5,1.4-4.19,2.17a19.05,19.05,0,0,1-4.57,1.44c-1.24.16-2,.11-2-.06s.69-.46,1.8-.84,2.61-1,4.26-1.75,3.19-1.41,4.34-1.81S111.39,106.67,111.46,106.84Z" transform="translate(-74.38 -34.14)"/><path class="cls-11" d="M114.62,48.46c0,.16-1,.42-2.6.55a30.1,30.1,0,0,1-6.35-.34,31.52,31.52,0,0,1-6.06-2c-1.52-.64-2.32-1.36-2.22-1.49s1,.22,2.53.61,3.65,1.06,6,1.54,4.56.58,6.14.71S114.6,48.26,114.62,48.46Z" transform="translate(-74.38 -34.14)"/><path class="cls-13" d="M116.33,162.92c-.29-.22,1.44-3.44,4-7.32l.68-1,0,0c2.24-3.44,4.51-5.51,4.73-5.34s-1.57,2.7-3.61,6h0l0,0-.67,1C118.92,160.13,116.62,163.14,116.33,162.92Z" transform="translate(-74.38 -34.14)"/><path class="cls-13" d="M160,178.6a7,7,0,0,1-2.12.23c-1.36.08-3.34.08-5.78,0a67.79,67.79,0,0,1-18.86-3.11,51.86,51.86,0,0,1-5.08-2.1l-1.19-.58-1.13-.64c-.73-.44-1.47-.83-2.13-1.31a60.91,60.91,0,0,1-6.85-5.23c-3.66-3.22-5.8-5.34-5.69-5.47s2.49,1.73,6.29,4.75a75,75,0,0,0,6.9,4.93c.65.45,1.38.82,2.1,1.23l1.1.61,1.16.54c1.53.8,3.24,1.34,4.94,2a80,80,0,0,0,18.49,3.43C157,178.28,160,178.39,160,178.6Z" transform="translate(-74.38 -34.14)"/></svg>