<?xml version="1.0" encoding="utf-8"?>
<!-- Generator: Adobe Illustrator 22.0.0, SVG Export Plug-In . SVG Version: 6.00 Build 0)  -->
<svg version="1.1" id="Layer_1" xmlns="http://www.w3.org/2000/svg" xmlns:xlink="http://www.w3.org/1999/xlink" x="0px" y="0px"
	 viewBox="0 0 349.5 425.2" style="enable-background:new 0 0 349.5 425.2;" xml:space="preserve">
<style type="text/css">
	.st0{fill:#FCA54C;}
	.st1{fill:#DCDE57;}
	.st2{fill:#7CC6E3;}
	.st3{fill:#FBD97B;}
	.st4{fill:#F2B87B;}
	.st5{fill:#B283DB;}
	.st6{fill:#993E31;}
	.st7{fill:#F7CB9C;}
	.st8{fill:#B34B3D;}
	.st9{fill:#42210B;}
	.st10{fill:#E8955D;}
	.st11{fill:#C96526;}
	.st12{fill:#FC8271;}
	.st13{fill:#9769BF;}
	.st14{fill:#D48637;}
	.st15{fill:#E0695A;}
	.st16{fill:#B04D40;}
	.st17{fill:#823227;}
	.st18{fill:#526F7A;}
	.st19{fill:none;stroke:#7F9E96;stroke-linecap:round;stroke-miterlimit:10;}
</style>
<g>
	<path class="st0" d="M73.5,26.6c-9,12-49.7,74-59.3,83.3c-5.7,5-3.7,5.3,4,4.7s116.3-18.7,125-22.7s7-5,11.3-17.3
		S174,32,175.2,27.3c1.7-6.3,0-8.7-9-7c-7.7,1.4-67,1-78.3,1.3S76.5,22.6,73.5,26.6z"/>
	<path class="st1" d="M175.2,27.3c1.7-6.3,0-8.7-9-7c-0.6,0.1-1.5,0.2-2.7,0.3c-20.4,13.1-52.4,34-52.4,34l1.7,12.9
		c4.8,4.4,27.6,17.4,35.4,21.7c3.3-2.5,3.2-5.4,6.4-14.6C158.9,62.3,174,32,175.2,27.3z"/>
	<path class="st2" d="M175,21.1c-1.2-1.5-3.9-1.8-8.8-0.8c-7.7,1.4-67,1-78.3,1.3c-6.2,0.2-9,0.5-10.8,1.3
		C80.5,33,94.5,58,113.6,68.3C130.4,57.9,161,37.2,175,21.1z"/>
	<path class="st3" d="M77.3,22.8c-1.6,0.7-2.3,1.9-3.8,3.8c-9,12-49.7,74-59.3,83.3c-2.3,2-3.3,3.3-3.2,4
		c23.7-6.2,64.8-24.5,102.9-45.5C95.1,55.4,81.5,32.6,77.3,22.8z"/>
	<path class="st4" d="M271.6,279.7c4.9-6.4,22.7-33.6,20.8-50.4c-1.9-16.9-1.6-19.9,0.7-20.9c2.3-1,3.9,3.4,3.9,3.4
		c4.5-4,9-3.2,12.1,8.1c3.1,11.3,4.6,55-21.6,75.7C275.7,297.7,271.6,279.7,271.6,279.7z"/>
	<path class="st5" d="M262.7,296.1c2.3-4.7,10.8-14.3,13.7-14.5c2.8-0.2,13.5,4.5,17,10.5c1,2.2-5.8,15.2-21.5,19
		C264.4,303.3,262.7,296.1,262.7,296.1z"/>
	<path class="st6" d="M222.4,367.8c-2,2-7.7,5.3-8.5,6.2c-0.8,0.8,6.8,18.8,9.2,18.3s13.8-9,15.3-11.2S225,368.9,222.4,367.8z"/>
	<path class="st7" d="M212.2,375.5c-1.8,1.5-8,6.6-10.3,6.8s-6.5-1.1-8,5.5s3.8,11.1,4.6,15c0.7,3.8,4.7,8.3,6.9,2.5
		c2.2-5.8,1.1-6.8,6.5-9.5c6.3-3.2,7.3-2.3,8.8-3.8S212.2,375.5,212.2,375.5z"/>
	<path class="st7" d="M242.7,391.7c2.1,2.1,4.9,11,7.1,16.3s3,7.6,8.3,5.1c5.3-2.5,11.5-4,14.1-5.5s4.4-4,0-4.8s-7.1-1.9-8.5-6.9
		s-3.5-12.1-5-14.8S242.7,391.7,242.7,391.7z"/>
	<path class="st6" d="M217.6,332.6c-3.3,6.8-10,19.5-2,31.3c6,8.8,18.5,20,24,25.5c7.8-3.5,19.8-8.3,19.8-8.3
		c-0.8-3.3-6.8-16-6.8-16c5.8-4.8,11-15,12.5-25.8C265.6,333.3,217.6,332.6,217.6,332.6z"/>
	<path class="st5" d="M223.9,292.8c4.5-1.7,13.7-3.4,27.7-1.3s19,4.8,21.7,13.2c2.7,8.3-1.4,34.2-3.4,39.4c-2.5,6.5-4,6.7-8.8,5
		c-8.4-3-30.7-9.5-41-9.3c-3.2,0.1-7.7,1.1-7-4c0.7-5.2,7.9-24.5,7.9-24.5L223.9,292.8z"/>
	<path class="st4" d="M243.5,289.3c-3,5.7,9.3,13.2,14.6,11.7c7.3-2,7.1-7.2,8.9-11.8C268.8,284.5,243.5,289.3,243.5,289.3z"/>
	<path class="st7" d="M218.8,274c-4.3,5,2.4,19.6,15.4,12.4c13.4,10.7,41.4,11.8,58.3,0.4c16.9-11.3,9.4-17,7.2-22.9
		c-2.2-6,1.2-9.6,0.3-20.1c-0.9-10.5-9.8-26-27.3-31C255.2,207.8,215.8,250.2,218.8,274z"/>
	<path class="st8" d="M279.9,269.3c-2.5,0.5-6.9,0.5-8.8,0.7c-1.9,0.2-2,2,0.3,6.3c2.2,4.3,8.9,5.1,12.1,1.3c3.2-3.8,2.8-8.4,2-8.7
		C284.7,268.7,283.8,268.6,279.9,269.3z"/>
	<path class="st9" d="M251,265.9c1-3.2,5.2-5.6,7.6-4c2.4,1.6,3.6,4.7,2.6,5.2c-0.9,0.4-2.1-2.8-4.7-2.2
		C253.9,265.3,250.2,268.3,251,265.9z"/>
	<path class="st9" d="M287.7,263.1c1.4,0.8,3.3-3.1,5.3-2.1c2,1,2.8,1.2,3.4,0.6c0.6-0.6-2.8-5-4.5-4.4
		C290.3,257.8,286.9,262.3,287.7,263.1z"/>
	<g>
		<path class="st10" d="M281.1,265.7c-0.2,0-0.4-0.5-0.8-1.1c-0.4-0.6-1.1-1.5-2.1-1.7c-0.9-0.2-1.8,0.5-2.5,0.9
			c-0.7,0.5-1.3,0.7-1.4,0.5c-0.1-0.2,0.2-0.6,0.8-1.2c0.3-0.3,0.7-0.7,1.2-1c0.5-0.3,1.3-0.6,2.2-0.5c0.8,0.1,1.4,0.6,1.9,1.1
			c0.4,0.5,0.7,1,0.8,1.5C281.4,265.1,281.2,265.7,281.1,265.7z"/>
	</g>
	<g>
		<path class="st11" d="M257.7,243.7c0.1,0.2-0.3,0.6-1,1c-0.7,0.4-1.6,1.1-2.7,1.8c-2.1,1.5-4,2.6-4.2,2.3
			c-0.2-0.3,1.3-1.8,3.4-3.4c1.1-0.7,2.2-1.3,3.1-1.6C257,243.6,257.6,243.5,257.7,243.7z"/>
	</g>
	<g>
		<path class="st11" d="M295.7,243.8c-0.2,0.1-0.5-0.2-1-0.7c-0.5-0.5-1.2-1-2.1-1.5c-1.8-1-3.5-1.5-3.5-1.9c0-0.3,2-0.4,4.1,0.8
			c1,0.6,1.8,1.4,2.2,2.1C295.8,243.2,295.8,243.7,295.7,243.8z"/>
	</g>
	<path class="st12" d="M282.1,278.8c-3.4-6.5-8.7-6.2-11.6-4.5c0.2,0.6,0.5,1.2,0.9,2C273.3,280,278.6,281.1,282.1,278.8z"/>
	<g>
		<path class="st10" d="M231.3,283.1c0,0.1-0.7,0.5-2,0.4c-0.7-0.1-1.5-0.4-2.2-1c-0.2-0.2-0.3-0.3-0.5-0.5
			c-0.1-0.3-0.4-0.5-0.4-0.8c-0.2-0.7,0.1-1.3,0.3-1.8l0,0.1c0.2-0.6,0.7-1,1.1-1.2c0.4-0.2,0.9-0.5,1-0.6c0,0,0,0,0,0
			c0,0,0-0.1,0-0.1c0,0,0-0.1,0-0.1c0-0.1-0.2-0.3-0.4-0.4c-0.4-0.3-0.9-0.5-1.4-0.7c-0.5-0.2-1-0.3-1.4-0.3c-0.4,0-0.8,0.1-1.2,0.2
			c-0.7,0.3-1.1,0.8-1.4,1.2c-0.3,0.4-0.4,0.6-0.5,0.6c-0.1,0-0.1-0.3,0-0.8c0.1-0.5,0.5-1.3,1.4-1.8c0.4-0.3,1-0.4,1.6-0.5
			c0.6,0,1.2,0.1,1.8,0.3c0.6,0.2,1.2,0.4,1.8,0.8c0.3,0.2,0.7,0.5,0.9,1c0.1,0.3,0.1,0.6,0.1,0.8c0,0.1-0.1,0.3-0.1,0.4
			c-0.1,0.1-0.1,0.3-0.2,0.4c-0.5,0.5-1,0.6-1.3,0.8c-0.3,0.2-0.6,0.4-0.6,0.6l0,0.1c-0.2,0.4-0.3,0.7-0.2,1c0,0.2,0.1,0.3,0.1,0.4
			c0.1,0.1,0.2,0.3,0.3,0.4c0.5,0.5,1.1,0.8,1.6,1C230.5,283,231.3,282.9,231.3,283.1z"/>
	</g>
	<path class="st7" d="M211.4,300.7c-5.4,1.7-17.1,4.3-21.1,17.3c-4.1,13,1,27.6,1.3,29.8c0.3,2.2-2.4,0.9-3.1,4.4
		c-0.7,3.5,4.9,3.8,4.9,3.8c2.6,0.9,4.5-0.7,4.5-0.7c3.2,0.3,7-3.3,7.5-8c0.5-4.7,0.8-17.8,1.8-19.6c1-1.8,8.2-1.5,11.2-4.1
		C221.4,320.9,211.4,300.7,211.4,300.7z"/>
	<path class="st5" d="M204.8,301.2c-1.8,2.5-2.4,10.4,4.6,21.2c1.7,2.7,4.8,8,16.3-1c17.4-13.6,10.9-28.5-0.8-29
		C219.4,292.1,206.2,299.4,204.8,301.2z"/>
	<g>
		<path class="st10" d="M197.3,349.7c0.2,0.1,0.1,0.6-0.1,1.4c-0.2,0.8-0.6,2-1.4,3.1c-0.2,0.3-0.4,0.5-0.7,0.8
			c-0.1,0.1-0.2,0.2-0.4,0.4c-0.1,0.1-0.2,0.2-0.4,0.3c-0.2,0.2-0.5,0.3-0.7,0.4c-0.2,0.1-0.5,0.2-0.7,0.3c-0.2,0.1-0.4,0.1-0.6,0.1
			c-0.2,0-0.3,0-0.5,0c-0.3,0-0.4-0.1-0.4-0.2c0-0.1,0.1-0.2,0.3-0.3c0.1-0.1,0.2-0.1,0.4-0.2c0.1-0.1,0.3-0.2,0.4-0.3
			c0.2-0.1,0.3-0.2,0.5-0.4c0.2-0.1,0.4-0.3,0.6-0.5c0.1-0.1,0.2-0.2,0.3-0.3c0.1,0,0.1-0.2,0.2-0.3c0.2-0.2,0.4-0.4,0.5-0.7
			c0.7-0.9,1.1-2,1.6-2.7C196.8,350.1,197.1,349.6,197.3,349.7z"/>
	</g>
	<g>
		<path class="st10" d="M199.6,349.6c0.2,0,0.2,0.5,0.2,1.3c-0.1,0.7-0.2,1.8-0.7,2.9c-0.5,1.1-1.3,2-2.1,2.3
			c-0.8,0.3-1.3,0.3-1.3,0.2c-0.1-0.2,0.3-0.5,0.8-0.9c0.5-0.5,1-1.2,1.4-2.1C198.7,351.3,199.2,349.5,199.6,349.6z"/>
	</g>
	<g>
		<path class="st10" d="M202.3,348.2c0.3,0,0.8,1.6,0.3,3.6c-0.3,1-0.8,1.9-1.3,2.3c-0.5,0.5-1,0.6-1.1,0.5c-0.1-0.2,0.1-0.5,0.3-1
			c0.3-0.5,0.5-1.3,0.8-2.1C201.7,349.7,201.9,348.2,202.3,348.2z"/>
	</g>
	<g>
		<path class="st13" d="M217.7,323.3c-0.2,0.1-1-1-2.3-2.8c-1.3-1.8-3-4.5-4.3-7.7c-0.6-1.6-1.1-3.2-1.3-4.7c-0.2-1.5-0.2-2.9-0.2-4
			c0.2-2.3,0.7-3.6,0.9-3.6c0.2,0,0,1.4,0,3.6c0,1.1,0.1,2.4,0.4,3.8c0.3,1.4,0.7,2.9,1.3,4.5c1.3,3.1,2.8,5.7,3.9,7.7
			C217.3,321.9,217.9,323.2,217.7,323.3z"/>
	</g>
	<path class="st14" d="M246.4,209.3c-12.5-1.5-24.7-5.5-26-22s-2.4-18.9,7-17c13.7,2.8,42.5,11,30,37.5
		C252.6,216.6,246.4,209.3,246.4,209.3z"/>
	<path class="st14" d="M206.9,227.8c0.5-7.8-2.3-17.8-14.3-22s-27.8,3.3-33.8,5.8s-3.5,3.5,3,13.8s25.8,26.8,43.5,8
		C206.4,230.6,206.9,227.8,206.9,227.8z"/>
	<path class="st8" d="M206.6,237.3c-4.3-1-5.5-4.5-2.3-9s6.8-0.3,6.8-0.3L206.6,237.3z"/>
	<path class="st14" d="M218.1,275.3c1-3,6.7-7.8,13.1-0.8c1.9,2.1,4.2,1.3,4.4-2.7s2.8-16.3-1-23.5c15.8-7.3,32.5-22.5,36.3-30
		c13.5,4.3,24.6,13.4,28.3,21.4c2,2.8,0.8-9.1-6.5-18.3s-27.1-17.3-46.3-14.1c-19.2,3.3-40.2,18-42,34.8S208.9,269.8,218.1,275.3z"
		/>
	<g>
		<path class="st13" d="M217,325.4c-0.1-0.2,2.2-0.8,5.2-2.9c1.5-1.1,3.1-2.5,4.8-4.3c1.7-1.7,3.4-3.8,4.8-6.2
			c0.7-1.2,1.3-2.3,1.5-3.6c0.3-1.2,0.4-2.5,0.3-3.7c0-2.4-0.6-4.5-1.3-6.2c-1.4-3.4-3.4-4.7-3.3-4.9c0,0,0.2,0,0.4,0.1
			c0.2,0.1,0.6,0.3,1,0.7c0.8,0.7,1.9,1.9,2.7,3.6c0.8,1.7,1.5,3.9,1.7,6.5c0.1,1.3,0,2.6-0.3,4c-0.1,0.3-0.2,0.7-0.3,1
			c-0.1,0.3-0.2,0.7-0.4,1c-0.3,0.7-0.7,1.3-1,1.9c-1.5,2.5-3.3,4.6-5.1,6.3c-1.8,1.7-3.5,3.2-5.2,4.2c-1.6,1-3.1,1.6-4.1,1.9
			C217.6,325.4,217.1,325.5,217,325.4z"/>
	</g>
	<g>
		<path class="st13" d="M264.4,303.8c0.1,0.1-0.9,1.2-3.1,2.2c-0.5,0.2-1.1,0.5-1.8,0.7c-0.3,0.1-0.7,0.2-1,0.3
			c-0.4,0.1-0.8,0.1-1.1,0.2c-1.6,0.2-3.4,0.2-5.2-0.5c-3.5-1.3-5.9-3.8-7.4-5.5c-1.5-1.8-2.2-3.1-2.1-3.2c0.2-0.1,1.1,0.9,2.8,2.5
			c1.6,1.6,4,3.8,7.1,4.9c1.5,0.6,3.2,0.6,4.6,0.5c0.4,0,0.7-0.1,1.1-0.1c0.3-0.1,0.7-0.2,1-0.2c0.6-0.1,1.2-0.4,1.7-0.5
			C263,304.4,264.2,303.6,264.4,303.8z"/>
	</g>
	<g>
		<path class="st13" d="M273.8,319.8c-0.2,0-0.4-1.3-0.6-3.5c-0.2-2.2-0.2-5.2-0.5-8.5c-0.2-1.6-0.4-3.2-0.8-4.5
			c-0.4-1.3-0.8-2.5-1.2-3.6c-0.8-2-1-3.4-0.9-3.5c0.2-0.1,0.7,1.2,1.7,3.1c0.5,1,1.1,2.2,1.5,3.6c0.5,1.4,0.7,3,0.9,4.7
			c0.3,3.4,0.2,6.4,0.1,8.6C274.1,318.4,274,319.8,273.8,319.8z"/>
	</g>
	<path class="st15" d="M237.9,390.4c-1.6-1.8,0-3.2,4-5.7c4-2.5,17.3-7.2,18.7-7.3c1.3-0.2,1.8,3.3,2,5.5s-1.7,1.8-8.2,4.8
		c-4.4,2.1-8.7,3.7-10.7,5.3C241.7,394.8,240.5,393.4,237.9,390.4z"/>
	<path class="st15" d="M209.7,373.9c-0.2,4,0.5,16.3,9.5,21.3c1.3,0.5,2.8,0,4.3-0.5s4.5-2.5,2.8-3.2c-1.7-0.7-5.6-3.8-7.8-8.6
		c-2.2-4.8-2.6-11-3.6-11.5S209.9,372.4,209.7,373.9z"/>
	<g>
		<path class="st16" d="M241.9,385.2c-0.1,0.1-0.6-0.5-1.5-1.4c-0.5-0.5-1-1.1-1.7-1.7c-0.7-0.6-1.4-1.4-2.3-2.2
			c-0.9-0.8-1.9-1.7-2.9-2.6c-0.5-0.5-1.1-1-1.6-1.4c-0.6-0.5-1.1-1.1-1.6-1.6c-2.2-2.3-4.6-4.8-6.7-7.8c-2.2-2.9-3.9-6-5-9
			c-1.2-3-1.5-6-1.3-8.4c0.2-2.4,0.6-4.3,1-5.6c0.5-1.3,0.8-1.9,0.9-1.9c0.1,0-0.1,0.8-0.4,2c-0.2,1.3-0.5,3.2-0.6,5.5
			c-0.1,2.3,0.3,5.1,1.5,7.9c1.1,2.9,2.8,5.8,4.9,8.7c2.1,2.9,4.4,5.4,6.5,7.7c0.5,0.6,1,1.1,1.6,1.6c0.5,0.5,1.1,1,1.6,1.5
			c1,1,1.9,1.9,2.8,2.7c0.8,0.9,1.6,1.7,2.2,2.4c0.7,0.7,1.1,1.4,1.5,1.9C241.5,384.6,241.9,385.2,241.9,385.2z"/>
	</g>
	<g>
		<path class="st16" d="M230.4,343.3c0.2,0,0.2,1.1-0.1,2.7c-0.2,0.8-0.4,1.8-0.9,2.8c-0.4,1-1.2,2.1-2.2,3c-2.1,1.7-4.7,2-6.5,1.4
			c-0.8-0.4-1.4-0.8-1.7-1.1c-0.3-0.3-0.5-0.5-0.5-0.6c0.1-0.2,1,0.3,2.5,0.8c0.4,0,0.7,0.1,1.2,0.1c0.2,0,0.4,0,0.7,0
			c0.2-0.1,0.5-0.1,0.7-0.2c0.2,0,0.5-0.1,0.7-0.2c0.2-0.1,0.5-0.2,0.7-0.3c0.2-0.1,0.5-0.2,0.7-0.4c0.2-0.2,0.4-0.3,0.6-0.5
			c0.8-0.7,1.5-1.6,2-2.5c0.5-0.9,0.8-1.8,1.1-2.5C229.9,344.3,230.2,343.3,230.4,343.3z"/>
	</g>
	<g>
		<path class="st17" d="M253.8,367.8c-0.1,0-0.3-0.2-0.5-0.6c-0.2-0.4-0.6-1-1.1-1.7c-0.5-0.7-1.1-1.6-1.8-2.5c-0.6-1-1.3-2-2-3.1
			c-1.5-2.2-3-3.9-4.1-5.3c-1.1-1.4-1.7-2.3-1.6-2.4c0.1-0.1,1,0.6,2.2,1.8c1.3,1.2,3,3,4.5,5.2c0.8,1.1,1.4,2.2,2,3.2
			c0.6,1,1.1,1.9,1.5,2.7c0.4,0.8,0.7,1.5,0.8,2C253.9,367.5,253.9,367.8,253.8,367.8z"/>
	</g>
	<g>
		<path class="st17" d="M236,385.6c-0.1,0.1-1.2-0.7-2.7-2.2c-0.8-0.7-1.7-1.6-2.7-2.6c-1-1-2.2-2-3.3-3.1c-4.8-4.5-8.2-8.6-8-8.8
			c0.3-0.3,4.1,3.4,8.8,7.9c1.2,1.1,2.3,2.2,3.3,3.2c1,1,1.8,2,2.5,2.8C235.3,384.4,236.1,385.5,236,385.6z"/>
	</g>
	<g>
		<path class="st16" d="M257.2,356c-0.1,0.1-0.6-0.1-1-0.9c-0.3-0.7-0.4-1.8-0.3-2.8c0.1-1,0.1-2,0.4-2.7c0.1-0.2,0.1-0.3,0.2-0.5
			c0.1-0.1,0.2-0.2,0.3-0.3c0.2-0.2,0.3-0.2,0.4-0.2c0.1,0.1,0.1,0.2,0.1,0.4c0,0.1,0,0.2,0,0.3c0,0.1,0,0.3,0,0.4
			c0,0.6,0.1,1.5,0,2.6c-0.1,1-0.1,1.9-0.1,2.5C257.1,355.5,257.3,355.9,257.2,356z"/>
	</g>
	<path class="st18" d="M272.2,402.8c-1.2-0.2-2.3-0.4-3.2-0.8c-0.7,0.7-1.4,1.5-2,2.1c-1.4,1.5-3.3,2-3.8,0.6
		c-0.4-1,1.8-3.1,3.2-4.2c-0.8-0.7-1.5-1.6-2-2.9c-3.5,0.2-5.1,5.4-6.2,8.1c-1.1,2.5-5.9,1.8-8.1,2.5c2.1,5,3,7.1,8.1,4.7
		c5.3-2.5,11.5-4,14.1-5.5S276.6,403.6,272.2,402.8z"/>
	<path class="st18" d="M209.5,397.2c-0.3-0.9-0.4-1.5-1.8-2.9c-3.1-2.9-6.1,0.8-7.4-1c-1.2-1.7-2.9-7.5-1.1-10.9
		c-2.1,0.1-5.4,1.3-6.4,4.5c-0.9,2.7,3.1,14,5.4,18.2c1.9,3.4,5.4,7,7.6,1.2c0.4-1,0.4-2.6,0.8-3.5c-4.4,0.5-5.3-2.9-4.7-4
		c0.6-1.2,2-2.2,4.1-0.8c1.2,0.8,1.3,1,1.7,1.7C208.3,398.7,208.7,398,209.5,397.2z"/>
	<path class="st19" d="M113.7,68.4c5.9,21.6,24.3,36.8,45.3,43.4c15,4.7,30.9,6.4,46.4,8.2c21.1,2.5,38.9,8.8,54.2,23.9
		c12.3,12.1,22.2,26.6,29.6,42.2c5.7,12,10,25.3,12.9,38.2c2.8,12.8,8.4,24.1,12.4,36.5c2.8,8.6,3.9,16.3,3.9,25.4
		c0,14.7-2.3,40.1-16,49"/>
	<path class="st4" d="M300,209.9c-3.2,1.4-6,6.7-4.3,11.6c1.6,4.9,6.1,7.1,9.7,4.4C309,223,305.8,207.2,300,209.9z"/>
	<g>
		<path class="st10" d="M306.4,225.2c0,0.1-0.2,0.3-0.8,0.6c-0.5,0.3-1.3,0.7-2.4,1c-1.1,0.3-2.5,0.5-4.1-0.1
			c-1.5-0.6-2.7-2-3.5-3.6c-0.8-1.6-1.1-3.3-0.9-4.8c0.1-1.5,0.5-2.8,0.9-3.8c0.1-0.5,0.4-1,0.6-1.4c0.1-0.2,0.2-0.4,0.3-0.6
			c0.1-0.2,0.2-0.3,0.3-0.4c0.4-0.5,0.7-0.7,0.7-0.6c0.2,0.1-0.6,1.2-1,3.3c-0.2,1-0.5,2.3-0.6,3.6c-0.1,1.3,0.3,2.8,0.9,4.2
			c0.7,1.4,1.7,2.5,2.8,3c1.1,0.5,2.4,0.5,3.4,0.3C305,225.6,306.3,225,306.4,225.2z"/>
	</g>
	<g>
		<path class="st10" d="M303,220.6c0,0.2-0.4,0.4-1.2,0.6c-0.7,0.3-1.7,0.6-2.6,1.1c-0.2,0.1-0.3,0.2-0.4,0.3
			c-0.1,0.1-0.2,0.2-0.4,0.3l0,0c-0.5,0.5-0.6,1-0.6,1.5c0,0.5,0.1,0.8,0,0.9c-0.1,0.1-0.5-0.1-0.8-0.6c-0.1-0.3-0.3-0.7-0.2-1.2
			c0.1-0.5,0.3-1,0.6-1.4l0,0c0.2-0.2,0.3-0.4,0.5-0.5c0.2-0.2,0.4-0.3,0.6-0.4c1.2-0.7,2.3-0.8,3.1-0.9
			C302.5,220.3,303,220.5,303,220.6z"/>
	</g>
	<g>
		<path class="st10" d="M304.1,215.8c0,0.2-0.6,0.3-1.4,0.6c-0.8,0.3-1.9,0.9-3.1,1.6c-1.2,0.7-2.2,1.3-2.7,1.9
			c-0.6,0.6-0.7,1.1-0.9,1.1c-0.2,0-0.4-0.7,0.2-1.6c0.5-0.9,1.6-1.8,2.8-2.5c1.2-0.7,2.5-1.2,3.5-1.3
			C303.5,215.4,304.1,215.7,304.1,215.8z"/>
	</g>
	<g>
		<path class="st10" d="M301.3,213.1c0.1,0.4-1.5,1.1-3.2,2.2c-0.9,0.5-1.5,1.1-1.9,1.6c-0.4,0.5-0.6,0.9-0.8,0.9
			c-0.2,0-0.3-0.5,0-1.3c0.3-0.8,1-1.7,2-2.3c1-0.6,2-1,2.7-1.1C300.8,212.9,301.2,212.9,301.3,213.1z"/>
	</g>
	<g>
		<path class="st11" d="M263.7,207.3c0,0.4-5.2,0.1-11.6,0.1c-3.2,0-6,0.3-8.1,0.6c-2,0.3-3.3,0.5-3.4,0.3c0-0.2,1.2-0.7,3.2-1.2
			c2.1-0.5,5-1,8.2-1c3.2,0,6.2,0.2,8.2,0.5C262.4,206.9,263.7,207.2,263.7,207.3z"/>
	</g>
	<g>
		<path class="st11" d="M270.9,218.3c0,0.1-0.4,0-0.9-0.3c-0.5-0.3-1.2-0.9-2-1.5c-0.4-0.3-0.8-0.6-1.4-1c-0.5-0.3-1-0.7-1.6-1
			c-0.6-0.3-1.2-0.7-1.9-1c-0.7-0.3-1.4-0.6-2.1-0.9c-2.9-1.2-5.7-2-7.7-2.6c-2-0.6-3.3-0.9-3.2-1.1c0-0.2,1.3-0.1,3.4,0.2
			c2.1,0.3,5,1,8,2.2c0.8,0.3,1.5,0.7,2.2,1c0.7,0.4,1.3,0.8,1.9,1.1c0.6,0.4,1.1,0.8,1.6,1.2c0.5,0.4,1,0.8,1.4,1.1
			c0.8,0.8,1.3,1.4,1.7,1.8C270.7,217.9,270.9,218.2,270.9,218.3z"/>
	</g>
	<g>
		<path class="st11" d="M227.2,244.3c0-0.1,0.6-0.3,1.8-0.8c0.6-0.3,1.3-0.6,2.1-0.9c0.4-0.2,0.8-0.4,1.3-0.6
			c0.2-0.1,0.5-0.2,0.7-0.3c0.2-0.1,0.5-0.2,0.7-0.4c2-1,4.4-2.1,7-3.4c2.6-1.3,5.4-2.9,8.3-4.6c2.8-1.7,5.3-3.8,7.5-5.7
			c2.1-2,3.9-3.9,5.2-5.7c1.3-1.8,2.2-3.3,2.9-4.3c0.7-1,1.2-1.6,1.2-1.5c0.1,0-0.2,0.7-0.8,1.8c-0.6,1.1-1.4,2.7-2.6,4.6
			c-1.2,1.9-3,3.9-5.1,6c-2.2,2-4.7,4.1-7.6,6c-2.9,1.8-5.8,3.3-8.5,4.6c-2.7,1.3-5.1,2.3-7.2,3.1c-0.3,0.1-0.5,0.2-0.8,0.3
			c-0.3,0.1-0.5,0.2-0.7,0.2c-0.5,0.2-0.9,0.3-1.3,0.4c-0.8,0.3-1.6,0.5-2.2,0.7C227.9,244.3,227.2,244.3,227.2,244.3z"/>
	</g>
	<g>
		<path class="st11" d="M244.7,228.6c-0.2-0.3,3.4-2.8,7.8-5.8c4.4-3.1,8.2-5.2,8.4-4.9c0.2,0.3-3.3,2.9-7.6,6
			C248.8,227,244.9,228.9,244.7,228.6z"/>
	</g>
	<g>
		<path class="st11" d="M284.4,218.3c-0.1,0.2-1,0-2.5-0.5c-0.7-0.2-1.6-0.4-2.6-0.7c-1-0.3-2.1-0.5-3.2-0.8
			c-1.1-0.2-2.2-0.5-3.2-0.7c-1-0.2-1.9-0.2-2.7-0.4c-0.4-0.1-0.7-0.1-1.1-0.2c-0.3-0.1-0.6-0.2-0.8-0.3c-0.4-0.2-0.6-0.3-0.6-0.4
			c0-0.1,0.3-0.1,0.7-0.1c0.2,0,0.5,0,0.8,0c0.3,0,0.7,0,1,0c0.8,0,1.7,0,2.8,0.1c1.1,0.1,2.2,0.4,3.4,0.6c1.2,0.3,2.3,0.6,3.3,0.9
			c1,0.4,1.9,0.7,2.6,1C283.6,217.6,284.4,218.1,284.4,218.3z"/>
	</g>
</g>
</svg>
