<?xml version="1.0" encoding="utf-8"?>
<!-- Generator: Adobe Illustrator 22.0.0, SVG Export Plug-In . SVG Version: 6.00 Build 0)  -->
<svg version="1.1" xmlns="http://www.w3.org/2000/svg" xmlns:xlink="http://www.w3.org/1999/xlink" x="0px" y="0px"
	 viewBox="0 0 750 500" style="enable-background:new 0 0 750 500;" xml:space="preserve">
<style type="text/css">
	.st0{fill:#D0EFE6;}
	.st1{clip-path:url(#SVGID_2_);}
	.st2{fill:#FFFFFF;}
	.st3{fill:#D1EBE3;}
	.st4{fill:#C3DCD5;}
	.st5{fill:#C5C748;}
	.st6{fill:#FFD271;}
	.st7{fill:#FC8271;}
	.st8{fill:#979930;}
</style>
<g id="background">
	<g>
		<rect class="st0" width="750" height="500"/>
	</g>
</g>
<g id="objects">
	<g>
		<defs>
			<rect id="SVGID_1_" width="750" height="500"/>
		</defs>
		<clipPath id="SVGID_2_">
			<use xlink:href="#SVGID_1_"  style="overflow:visible;"/>
		</clipPath>
		<g class="st1">
			<path class="st2" d="M757.1,136c-0.5,0-1,0-1.5,0c-20.4,0.9-42.4,10.3-56.4,25.4c-11.9,12.8-11.9,31.7-9.3,48.2
				c1.6,10,4.2,24.5,13.8,30c-3.6,2.1-9.6,1.5-13.9,2.3c-8,1.5-14.3,5.1-18.7,12.1c-7,11.2-8.6,34.2,5.8,40.7
				c-12.7-0.6-18.8,10.3-24.4,20.4c-24.7-13.2-35.1,39.8-57.3,41.6c-13.6,1.1-28.5-3.1-42.2-3.9c-19.4-1-36.7-0.3-55,6.5
				c-14.7,5.5-29.1,13-38.3,26.1c-2.7,3.8-6.4,17.7-11.2,18.7c-0.9,0.2-5.7-2.5-7.2-2.7c-7-1.1-15.3,1.3-16.7,9.1
				c-6.2,0.2-12.3-3.4-18.9-1.4c-8.4,2.5-16.6,12.6-22.5,18.5l28,27.2c23.2,1.9,49.9-7,72.6-10.7c44.5-7.2,88.4-17.1,132.8-24.8
				c46.2-8,93.5-17,140.5-17.8V136z"/>
			<path class="st2" d="M395.1,407.5c-7.5-6.6-14.6-5.6-23.9-6c3.6-12.7,6.6-19.6,3.6-33.1c-4.3-19.5-22.4-37.9-40.2-45.4
				c-14.6-6.2-33.4-8.2-49.2-6.6c-11.7,1.1-20,12.2-30.4,13.8c-0.7-8.5,2.3-13.1-3.5-21c-4.8-6.5-10.4-9.6-18.5-9.4
				c8-10.5,17.8-18.8,23.1-31.7c7.4-18,6.7-39.9,0-57.9c-6.6-17.6-18.6-35.6-34.5-45.6c-13-8.1-23.5-6.7-37.4-6.7
				c0.7-13.5-10.3-18.4-21.5-21.7c-10.1-3-18.1,1.9-27.2,1.2c1.7-9.1,9.5-15.7,6.3-26.3c-4.8-15.7-24-24.9-38.8-26.3
				c-18.3-1.7-42.2,0-59.1,7.9c-9.8,4.5-20.1,11.5-25.9,20.9c-2.4,3.9-2.6,8.4-4.7,12.3c-2.6,4.7-11.5,9.5-15.6,12.8l-6,2.7V425
				c21.8-2.1,60.7-1.8,77.3-0.2c41.7,3.9,83.4,5.7,125.3,7.2c47.4,1.7,94.9,1.2,142.3,1.2h45.4c5.7,0,20.2,1.8,22.3-2.3
				C407.7,424.3,399.7,411.5,395.1,407.5z"/>
			<path class="st3" d="M757.1,231c-12.6,2.6-22.7,15-29.1,25.5c-2.6,4.3-2.3,10.2-5.7,13.8c-4.7,5.1-13.2,3.2-19.2,4.7
				c-10.9,2.7-17.2,15.3-24.5,23.1c-12.9,13.8-25.3,28.3-39,41.5c-13.9,13.4-28.6,25.6-44.4,36.8c-6.3,4.4-13.5,8.2-19.5,13.1
				c-4.2,3.4-7.4,7.8-11.8,11.2c-19.1,14.9-44.2,21.5-67.3,27.5c-20.6,5.4-40.7,4.8-61.5,7.6c-17.3,2.4-39.7-1.9-56.1-7.6
				c-12-4.2-22.3-10-32-18c-7-5.8-13.2-16.3-21.4-19.9c-8.2-3.5-21.7,1.5-29.9,4c-10,3-13.2,3.6-18-6.7c-4-8.6-12-21-15.6-29.9
				c-4.6-11.4-14.5-24.5-21-28c-8.8-4.7-21.5,4-33.5,7c-15.2,3.8-27.5,5.6-40-6.2c-7.3-6.9-8-18.6-16.2-25.7
				c-12.7-11-17.7-19-31-29.3c-6.6-5.1-10.4-16.7-15.5-23.3c-6.1-8-8.5-10.2-18.6-6c-8.7,3.6-13.7,9.3-18.8-1.1
				c-5.3-10.8-8.4-23-12.5-34.3c-4.4-11.9-10.2-28.9-24.2-32c-11.8-2.6-23.2,0.2-33.8,5.7V393l182.5,60.4
				c35.6,4.2,70.2,8.2,106.2,7.4c30.3-0.7,60.4-3.5,90.4-7.4c53-6.8,105.9-15.1,158.6-24c61.5-10.4,123-20.4,184.8-29.3
				c12.5-1.8,25.1-3.6,37.6-5.3V231z"/>
			<path class="st4" d="M757.1,290.7c-4.1,4.3-7.9,9-12.4,13c-4.6,4.1-10.2,11.7-15.7,14.3c-6.2,2.8-17.1-3.1-23.9-3.4
				c-10.7-0.5-16,0.2-23.6,7.5c-6.8,6.5-13.2,12.9-20.4,19c-16.3,13.9-31.7,28.6-49,41l6,3.5h8c12.5,0.5,24.5-1.5,37-3.5
				c19-3.5,38.5-5,58-5.5c11,0,22,0.5,32.5,0c1.2-0.1,2.3-0.1,3.5-0.2V290.7z"/>
			<path class="st4" d="M340.9,441.5c-5.7-0.8-10.5-1.6-15.7-4.7c-8.3-4.9-17.6-12.1-24.3-19c-8.2-8.3-19-14.5-28.9-21.2
				c-8.4-5.7-16.7-14.2-26.6-17.3c-7.8-2.5-14.9-1.3-22.8-4.8c-21-9.5-39.7-23.2-60.1-33.8c-8.6-4.4-17.5-8.3-27.3-9.5
				c-8.6-1-17.8,0.3-26.2-1.8c-14.6-3.7-24.6-14-31.1-26.8c-7.7-15.4-21-39.6-36.8-48.5c-14.5-8.1-37.8,16.6-43.8,28l-0.3,4.4v111.1
				c16.7,0.6,33.3,3.1,50,3.8c32.9,1.5,65.7,0.5,98.3,5.4c34.6,5.2,70.3,12.5,104,21.8c22.1,6.1,44.1,13.8,66.3,19.4
				c9,2.3,26.2,9.6,33.4,0.2C354.2,441.4,346.8,442.3,340.9,441.5z"/>
		</g>
		<g class="st1">
			<path class="st5" d="M60.5,518.1c-11.6-0.4-23.5-3.5-35-3.2c-8.2,0.2-18.5,4-26.3-0.5c-3.9-2.2-3.8-7.4-4-12
				C-6,477.6-6,452.3-6.2,427.7c-0.1-9.4,0-18.9,0.5-28.2c0.3-6.2-0.9-15.4,1.3-21.2c3.9-10.3,23-12.7,32.2-15
				c5.3-1.3,11.3-2,16.7-2.7c4.7,0,11.3-1.3,15.3,0c6,1.3-4,7.3-7.3,6.7c5.3-2.7,12.7-5.3,18-4c0,2.7-6,4-8,4
				c9.9,0,20.1-1.1,29.6,1.8c9.3,2.9,18.7,1.9,27.8,6.5c6.5,3.3,13,6.6,20,8.7c5.3,1.6,10.1,2.1,15.7,1.6c2.8-0.3,5.9-0.8,8.7-0.5
				c0.6,0.1,3.1,0.6,3.4,1.2c1,2-1.2,1.5-1.8,2.7c-0.3,0.5-0.8,0.4-1.2,0.4c2.5-0.2,5.5-1.3,7.9-0.3c-0.7,1.3-2.1,2.3-3.3,2.8
				c3.3-1.4,11.3,2.4,15,2.6c5.7,0.2,11.1,1.9,16.7,3.3c7.3,1.8,14.5,2.4,21.9,1.9c8-0.5,16.7,2.8,24.4,4.7c8,2,16,3.3,24,3.3
				s16-4,23.3-2.7c-0.7,2.7-5.3,4-7.3,5.3c1.3,1.3,12.7,0,9.3,3.3c20.7,0.7,40,6.7,60,8c18,1.3,35,2.5,52.3-0.8
				c-2-1.3-6.2-6.5-4.3-6.5c6,0,6.7,4.7,10.7,7.3c-1.3-2.7-2.7-9.3,2-6c4,2.7,7.3,4,12.7,5.3c8,2,16.7,1.3,24.7,1.3
				c18,0,36-2.7,53.3-8c40.7-12.7,78.7-34,120.7-44.7c12-3.3,24-6.7,36-8.7c5.3-0.7,10.7-2,16-2.7c4,0,13.3-0.7,5.3,4
				c2-2.7,6-4,9.3-4.7c0.7,0,4-0.7,4.7,0c2,1.3,0.7,2.7-0.7,3.3c3.3,0,7.3-0.7,10.7-1.3c3.3-0.7,6.7-0.7,10.7-0.7c7.3,0,14,0,21.3,0
				c6.7,0,13.3,0.7,20,0.7c3.3,0,7.3,0,10.7,0c3.3-0.7,7.3-1.3,10.7-0.7c-2,4.7-1.3,10-2,14.7c-0.7,4.7,0,9.3,0,14
				c1.3,10-0.7,20.7,0.7,30.7c2.7,22.7-0.7,45.3-0.7,67.3c0,6,0,12,0.7,17.3c0.7,4.7,2,10,1.3,15.3c-20-6.7-40-6-60.7-5.3
				c-29.3,0-58.7,0.7-88,2.7c-30.7,2.7-62,3.3-93.3,3.3c-33.3,0-66,2-99.3,2.7c-60,1.3-120-0.7-179.3-4c-26.7-2-52.7-2.7-79.3-2.7
				c-21.3-0.7-42.7-2-63.3-0.7C99.8,515.4,80.5,518.7,60.5,518.1z"/>
			<g>
				<path class="st2" d="M188,454.7c0.3-1.3,0.8-2.4,2-3.1c2.2-1.1,3.9,0.3,5.4,2c0.8-1,1.6-1.8,3-1.6c1.3,0.1,2.6,0.7,3.7,1.4
					c2.5,1.6,1.2,4.5-0.9,5.7c2.7,0.8,3.4,3.1,2.1,5.4c-1.5,2.6-3.9,3.3-6.2,1.5c-1,0.7-1.4,1.5-2.6,1.4c-1.1-0.1-2.1-0.7-2.9-1.3
					c-1.7-1.2-2.2-3.6-1.2-5.4c-0.3-0.3-1-0.2-1.4-0.4c-0.4-0.2-0.9-0.3-1.2-0.6c-0.8-0.6-1.3-1.2-1.4-2.2c-0.2-0.9-0.1-2.5,1.1-2.7
					"/>
				<path class="st6" d="M193.5,458.9c-0.1-0.7-0.1-1.1,0.4-1.7c0.5-0.5,1.1-0.7,2-0.7c1.7-0.2,3.4,1.4,2.8,3.2
					c-0.3,1.6-2.5,2.3-3.8,1.4c-0.8-0.4-1.2-1-1.3-2c-0.1-0.5,0.1-0.9,0-1.5"/>
			</g>
			<g>
				<path class="st6" d="M414.8,467.9c-1.2-1-2-2.2-1.9-3.9c0.2-2.8,2.5-3.8,5.1-4.3c-0.6-1.4-0.9-2.6,0.1-3.9
					c0.8-1.2,2.3-2.2,3.6-2.9c3.1-1.6,5.2,1.4,5.2,4.2c2.4-2.3,5.1-1.7,6.7,1c1.8,3,1.1,5.9-2.1,7.1c0.2,1.4,0.7,2.3-0.1,3.4
					c-0.7,1-1.9,1.7-3,2.1c-2.2,1.1-4.9,0.1-6.2-2c-0.5,0.2-0.8,0.9-1.2,1.2c-0.4,0.4-0.8,0.7-1.3,0.9c-1.1,0.4-2,0.6-3.1,0.1
					c-1.1-0.3-2.6-1.4-2-2.7"/>
				<path class="st2" d="M422.1,464.9c-0.8-0.3-1.2-0.6-1.4-1.4c-0.2-0.8-0.1-1.6,0.4-2.4c0.8-1.8,3.4-2.7,4.9-0.9
					c1.4,1.2,0.8,3.9-0.7,4.6c-0.9,0.6-1.8,0.6-2.8,0.2c-0.6-0.2-0.9-0.7-1.5-0.9"/>
			</g>
			<g>
				<path class="st6" d="M99.7,428.5c2.7-3.8,3.1-10.2-2.2-12.1c-2.5-0.9-5.9,0-8.1,1.2c-2.3,1.5-2.4,4.5-2.7,6.8
					c-1.9-0.8-3.9-1.8-6.1-1.5c-2,0.3-4.3,1.2-5.4,3c-1.1,1.6-1.4,3.5-1.2,5.1c0.1,2,0.7,3,2.5,3.8c-1.5,1.7-2.7,3.6-2.7,6
					c0.2,2.4,2.2,3.7,4.5,4.5c2.5,1.1,4.9,0.7,7.7,0.2c2.3-0.6,3.5,0.4,5.1,2.1c2.2,1.9,4.8,2.5,7.5,1c2.4-1.7,3.1-4.5,3-7.2
					c0-0.7-0.1-1.1,0.8-1.5c0.9-0.4,2-0.3,2.9-0.7c2.8-1,4.5-3.5,4.6-6.3c0-4.8-5.8-7.3-9.8-5.2"/>
				<path class="st2" d="M68.3,430.7c0.4-1.7,0.4-3.3-0.8-4.9c-2-2.5-4.9-1.9-7.6-0.6c-0.4-1.7-0.9-3-2.7-3.6
					c-1.6-0.6-3.6-0.5-5.3-0.3c-3.9,0.5-3.9,4.8-2.1,7.4c-3.8-0.5-5.8,1.8-5.6,5.4c0.4,4,2.9,6.2,6.7,5.3c0.8,1.4,0.8,2.6,2.4,3.1
					c1.3,0.5,2.9,0.3,4.2,0c2.7-0.5,4.7-3.2,4.4-5.9c0.6-0.1,1.3,0.3,1.9,0.3c0.6,0.1,1.2,0.1,1.8,0c1.3-0.3,2.2-0.7,3-1.9
					c0.8-1,1.5-3,0.1-3.9"/>
				<path class="st7" d="M126.4,445.3c-0.1-2.9-1.3-5.8-4.2-6.9c-1.2-0.5-3.2-0.4-4.3,0.4c-1.2,1.1-1,3.3-0.7,4.7
					c-0.9,0.1-1.5-0.3-2.4-0.2c-0.6,0.1-1.1,0.4-1.7,0.5c-1.2,0.7-2.4,1.8-2.4,3.2c0,1.1,0.2,2.4,0.8,3.4c0.9,1.1,2.1,1.3,3.1,2.3
					c-0.2-0.2-1.2,2.3-1.3,2.5c-0.1,0.8,0.1,1.6,0.6,2.4c0.9,1.5,2.7,2.5,4.5,2.9c1.6,0.3,3.6,0.2,4.8-1.1c0.2-0.2,0.5-1,0.7-1.1
					c0.6-0.3,1.3,0.1,1.9,0.3c1.5,0.4,2.7,0.5,4.1-0.3c3.8-2.2,1.6-5.4-1.2-7.2c1.1-0.4,2.3-0.4,2.7-1.6c0.6-1,0.3-2.2-0.2-3.1
					c-1.4-1.9-2.6-1.4-4.6-1.2"/>
				<path class="st6" d="M119.3,448.1c-1.7,2.4,2.1,4.9,4.2,3.8C126.9,450.1,121.6,444.8,119.3,448.1z"/>
				<path class="st2" d="M93.6,435.5c1.4-1.3,1.6-2.8,0.1-4.1c-1.5-1.7-4.5-2.1-6.1-0.2c-3.8,4.8,5.6,8.1,6.3,3.8"/>
				<path class="st6" d="M59.1,433.1c0.6-0.8,0.9-1.2,0.7-2.2c-0.2-1-0.8-1.6-1.8-2.2c-1.8-1.4-4.9-0.8-5.5,1.7
					c-0.7,2,1.3,4.4,3.3,4.3c1.2,0.1,2.2-0.3,2.9-1.3c0.5-0.5,0.5-1.1,1-1.7"/>
			</g>
			<g>
				<path class="st8" d="M100.8,463.7c-0.1,0.2-1.5-0.8-3.8-2.2c-0.6-0.3-1.2-0.7-1.9-1.1c-0.2-0.1-0.3-0.2-0.5-0.3l-0.3-0.2
					c-0.2-0.2-0.2-0.2-0.3-0.3c-0.3-0.3-0.7-0.5-1-0.8c-0.7-0.6-1.5-1.2-2.2-1.9c-0.4-0.4-0.7-0.8-1-1.3c-0.2-0.3-0.3-0.6-0.4-0.9
					c-0.1-0.3-0.1-0.8,0.2-1.2c0.5-0.8,1.1-1,1.7-1.2c0.3-0.1,0.6-0.1,0.9-0.2c0.3,0,0.6,0,0.9,0c1.1,0.1,2.1,0.6,2.9,1.1
					c1.6,1.1,2.6,2.6,3.3,3.8c1.4,2.5,1.6,4.3,1.5,4.3c-0.2,0.1-0.7-1.6-2.3-3.8c-0.8-1.1-1.8-2.3-3.2-3.2c-0.7-0.4-1.5-0.8-2.3-0.9
					c-0.2,0-0.4,0-0.6,0l-0.6,0.1c-0.4,0.1-0.8,0.3-0.9,0.5c-0.1,0.1,0,0.5,0.2,0.8c0.2,0.4,0.5,0.7,0.8,1.1
					c0.6,0.7,1.4,1.3,2.1,1.8c0.4,0.3,0.7,0.6,1,0.9c0.1,0.1,0.2,0.2,0.2,0.2l0.3,0.2c0.2,0.1,0.3,0.2,0.5,0.3
					c0.7,0.5,1.3,0.9,1.9,1.3C99.7,462.4,100.9,463.6,100.8,463.7z"/>
			</g>
			<g>
				<path class="st8" d="M100.1,464.4c-0.4,0-0.6-3.1-0.9-6.7c-0.2-1.8-0.5-3.4-0.8-4.6c-0.3-1.2-0.5-1.9-0.3-2
					c0.2-0.1,0.6,0.6,1.2,1.7c0.5,1.2,1,2.9,1.2,4.8C100.9,461.4,100.5,464.4,100.1,464.4z"/>
			</g>
			<g>
				<path class="st8" d="M176.7,474.7c-0.1,0-0.1-0.4-0.5-0.7c-0.4-0.4-1.2-0.5-2.3-0.5c-0.6,0-1.2,0.1-1.8,0.1c-0.3,0-0.7,0-1,0.1
					c-0.3,0.1-0.7,0.2-1.1,0.2c-1.5,0.3-3,1-4.7,1.7l-1.9,0.8l1.1-1.7c0.7-1.2,1.8-2,2.7-2.8c0.3-0.4,0.7-0.8,0.8-1.1
					c0.2-0.4,0.1-0.7-0.1-0.8c-0.2-0.2-0.6-0.3-1.1-0.3c-0.5,0-0.9,0-1.4,0.1c-1.9,0.3-3.5,0.9-4.7,1.7c-2.4,1.6-3.2,3.4-3.4,3.2
					c-0.1,0,0.1-0.5,0.5-1.3c0.4-0.7,1.2-1.8,2.4-2.7c1.2-1,3-1.8,5-2.2c0.5-0.1,1-0.2,1.6-0.2c0.6,0,1.3,0.1,1.9,0.6
					c0.3,0.3,0.5,0.7,0.5,1.1c0,0.4,0,0.8-0.1,1.1c-0.2,0.7-0.7,1.2-1.1,1.6c-1,0.9-2,1.7-2.5,2.5c-0.3-0.3-0.6-0.6-0.8-0.9
					c1.7-0.7,3.4-1.4,5-1.6c0.4-0.1,0.8-0.1,1.2-0.2c0.4,0,0.7,0,1.1,0c0.7,0,1.3,0,1.9,0c1.2,0.1,2.2,0.4,2.7,1
					c0.2,0.3,0.3,0.6,0.2,0.8C176.7,474.6,176.7,474.7,176.7,474.7z"/>
			</g>
			<g>
				<path class="st2" d="M695.8,460.2c0.3-1.3,0.8-2.4,2-3.1c2.2-1.1,3.9,0.3,5.4,2c0.8-1,1.6-1.8,3-1.6c1.3,0.1,2.6,0.7,3.7,1.4
					c2.5,1.6,1.2,4.5-0.9,5.7c2.7,0.8,3.4,3.1,2.1,5.4c-1.5,2.6-3.9,3.3-6.2,1.5c-1,0.7-1.4,1.5-2.6,1.4c-1.1-0.1-2.1-0.7-2.9-1.3
					c-1.7-1.2-2.2-3.6-1.2-5.4c-0.3-0.3-1-0.2-1.4-0.4c-0.4-0.2-0.9-0.3-1.2-0.6c-0.8-0.6-1.3-1.2-1.4-2.2c-0.2-0.9-0.1-2.5,1.1-2.7
					"/>
				<path class="st6" d="M701.3,464.4c-0.1-0.7-0.1-1.1,0.4-1.7c0.5-0.5,1.1-0.7,2-0.7c1.7-0.2,3.4,1.4,2.8,3.2
					c-0.3,1.6-2.5,2.3-3.8,1.4c-0.8-0.4-1.2-1-1.3-2c-0.1-0.5,0.1-0.9,0-1.5"/>
			</g>
			<g>
				<path class="st7" d="M663.8,411.6c0.1-2.9,1.3-5.8,4.2-6.9c1.2-0.5,3.2-0.4,4.3,0.4c1.2,1.1,1,3.3,0.7,4.7
					c0.9,0.1,1.5-0.3,2.4-0.2c0.6,0.1,1.1,0.4,1.7,0.5c1.2,0.7,2.4,1.8,2.4,3.2c0,1.1-0.2,2.4-0.8,3.4c-0.9,1.1-2.1,1.3-3.1,2.3
					c0.2-0.2,1.2,2.3,1.3,2.5c0.1,0.8-0.1,1.6-0.6,2.4c-0.9,1.5-2.7,2.5-4.5,2.9c-1.6,0.3-3.6,0.2-4.8-1.1c-0.2-0.2-0.5-1-0.7-1.1
					c-0.6-0.3-1.3,0.1-1.9,0.3c-1.5,0.4-2.7,0.5-4.1-0.3c-3.8-2.2-1.6-5.4,1.2-7.2c-1.1-0.4-2.3-0.4-2.7-1.6c-0.6-1-0.3-2.2,0.2-3.1
					c1.4-1.9,2.6-1.4,4.6-1.2"/>
				<path class="st6" d="M671,414.4c1.7,2.4-2.1,4.9-4.2,3.8C663.3,416.4,668.6,411.1,671,414.4z"/>
			</g>
			<g>
				<path class="st2" d="M724.9,387.5c-0.4-1.7-0.4-3.3,0.8-4.9c2-2.5,4.9-1.9,7.6-0.6c0.4-1.7,0.9-3,2.7-3.6
					c1.6-0.6,3.6-0.5,5.3-0.3c3.9,0.5,3.9,4.8,2.1,7.4c3.8-0.5,5.8,1.8,5.6,5.4c-0.4,4-2.9,6.2-6.7,5.3c-0.8,1.4-0.8,2.6-2.4,3.1
					c-1.3,0.5-2.9,0.3-4.2,0c-2.7-0.5-4.7-3.2-4.4-5.9c-0.6-0.1-1.3,0.3-1.9,0.3c-0.6,0.1-1.2,0.1-1.8,0c-1.3-0.3-2.2-0.7-3-1.9
					c-0.8-1-1.5-3-0.1-3.9"/>
				<path class="st6" d="M734.1,389.9c-0.6-0.8-0.9-1.2-0.7-2.2c0.2-1,0.8-1.6,1.8-2.2c1.8-1.4,4.9-0.8,5.5,1.7
					c0.7,2-1.3,4.4-3.3,4.3c-1.2,0.1-2.2-0.3-2.9-1.3c-0.5-0.5-0.5-1.1-1-1.7"/>
			</g>
			<g>
				<path class="st6" d="M691,386.3c-2.7-3.8-3.1-10.2,2.2-12.1c2.5-0.9,5.9,0,8.1,1.2c2.3,1.5,2.4,4.5,2.7,6.8
					c1.9-0.8,3.9-1.8,6.1-1.5c2,0.3,4.3,1.2,5.4,3c1.1,1.6,1.4,3.5,1.2,5.1c-0.1,2-0.7,3-2.5,3.8c1.5,1.7,2.7,3.6,2.7,6
					c-0.2,2.4-2.2,3.7-4.5,4.5c-2.5,1.1-4.9,0.7-7.7,0.2c-2.3-0.6-3.5,0.4-5.1,2.1c-2.2,1.9-4.8,2.5-7.5,1c-2.4-1.7-3.1-4.5-3-7.2
					c0-0.7,0.1-1.1-0.8-1.5c-0.9-0.4-2-0.3-2.9-0.7c-2.8-1-4.5-3.5-4.6-6.3c0-4.8,5.8-7.3,9.8-5.2"/>
				<path class="st2" d="M697.1,393.3c-1.4-1.3-1.6-2.8-0.1-4.1c1.5-1.7,4.5-2.1,6.1-0.2c3.8,4.8-5.6,8.1-6.3,3.8"/>
				<g>
					<path class="st8" d="M713.7,419.7c-0.1,0.2-1.5-0.8-3.8-2.2c-0.6-0.3-1.2-0.7-1.9-1.1c-0.2-0.1-0.3-0.2-0.5-0.3l-0.3-0.2
						c-0.2-0.2-0.2-0.2-0.3-0.3c-0.3-0.3-0.7-0.5-1-0.8c-0.7-0.6-1.5-1.2-2.2-1.9c-0.4-0.4-0.7-0.8-1-1.3c-0.2-0.3-0.3-0.6-0.4-0.9
						c-0.1-0.3-0.1-0.8,0.2-1.2c0.5-0.8,1.1-1,1.7-1.2c0.3-0.1,0.6-0.1,0.9-0.2c0.3,0,0.6,0,0.9,0c1.1,0.1,2.1,0.6,2.9,1.1
						c1.6,1.1,2.6,2.6,3.3,3.8c1.4,2.5,1.6,4.3,1.5,4.3c-0.2,0.1-0.7-1.6-2.3-3.8c-0.8-1.1-1.8-2.3-3.2-3.2
						c-0.7-0.4-1.5-0.8-2.3-0.9c-0.2,0-0.4,0-0.6,0l-0.6,0.1c-0.4,0.1-0.8,0.3-0.9,0.5c-0.1,0.1,0,0.5,0.2,0.8
						c0.2,0.4,0.5,0.7,0.8,1.1c0.6,0.7,1.4,1.3,2.1,1.8c0.3,0.3,0.7,0.6,1,0.9c0.1,0.1,0.2,0.2,0.2,0.2l0.3,0.2
						c0.2,0.1,0.3,0.2,0.5,0.3c0.7,0.5,1.3,0.9,1.9,1.3C712.6,418.4,713.8,419.6,713.7,419.7z"/>
				</g>
				<g>
					<path class="st8" d="M713,420.4c-0.4,0-0.6-3.1-0.9-6.7c-0.2-1.8-0.5-3.4-0.8-4.6c-0.3-1.2-0.5-1.9-0.3-2
						c0.2-0.1,0.6,0.6,1.2,1.7c0.5,1.2,1,2.9,1.2,4.8C713.8,417.4,713.3,420.4,713,420.4z"/>
				</g>
			</g>
			<g>
				<path class="st8" d="M684.5,480.2c-0.1,0-0.1-0.4-0.5-0.7c-0.4-0.4-1.2-0.5-2.3-0.5c-0.6,0-1.2,0.1-1.8,0.1c-0.3,0-0.7,0-1,0.1
					c-0.3,0.1-0.7,0.2-1.1,0.2c-1.5,0.3-3,1-4.7,1.7l-1.9,0.8l1.1-1.7c0.7-1.2,1.8-2,2.7-2.8c0.3-0.4,0.7-0.8,0.8-1.1
					c0.2-0.4,0.1-0.7-0.1-0.8c-0.2-0.2-0.6-0.3-1.1-0.3c-0.5,0-0.9,0-1.4,0.1c-1.9,0.3-3.5,0.9-4.7,1.7c-2.4,1.6-3.2,3.4-3.4,3.2
					c-0.1,0,0.1-0.5,0.5-1.3c0.4-0.7,1.2-1.8,2.4-2.7c1.2-1,3-1.8,5-2.2c0.5-0.1,1-0.2,1.6-0.2c0.6,0,1.3,0.1,1.9,0.6
					c0.3,0.3,0.5,0.7,0.5,1.1c0,0.4,0,0.8-0.1,1.1c-0.2,0.7-0.7,1.2-1.1,1.6c-1,0.9-2,1.7-2.5,2.5c-0.3-0.3-0.5-0.6-0.8-0.9
					c1.7-0.7,3.4-1.4,5-1.6c0.4-0.1,0.8-0.1,1.2-0.2c0.4,0,0.7,0,1.1,0c0.7,0,1.3,0,1.9,0c1.2,0.1,2.2,0.4,2.7,1
					c0.2,0.3,0.3,0.6,0.2,0.8C684.6,480.1,684.5,480.2,684.5,480.2z"/>
			</g>
			<g>
				<path class="st8" d="M274.1,418.1c0-0.2,1.1-0.3,2.8-0.6c0.4-0.1,0.9-0.2,1.4-0.3c0.5-0.1,1-0.3,1.5-0.5c0.5-0.2,1-0.5,1.4-0.9
					c0.4-0.4,0.7-0.8,0.6-1c-0.1-0.2-0.3-0.5-0.6-0.8l-0.1-0.1l-0.3-0.1c-0.2-0.1-0.3-0.2-0.7-0.3c-0.5-0.2-1.2-0.3-1.8-0.5
					c0.4-0.2,0.8-0.4,1.1-0.6c0.4-0.2,0.8-0.4,1.2-0.5c0.4-0.2,0.8-0.3,1-0.4c0.2-0.1,0.5-0.1,0.7-0.2c0.9-0.2,1.6-0.2,2.3-0.3
					c1.2-0.1,2-0.1,2,0c0,0.1-0.7,0.4-1.9,0.7c-0.6,0.1-1.3,0.3-2.1,0.5c-0.2,0.1-0.4,0.1-0.6,0.2c-0.3,0.1-0.3,0.1-0.3,0.1
					c-0.1,0-0.1,0.1,0,0.1l0,0c0,0,0,0,0.1,0l0.1,0l0.2,0.1c0.4,0.3,0.9,0.8,1.1,1.5c0.2,0.5,0,1.1-0.3,1.5
					c-0.2,0.4-0.5,0.6-0.8,0.9c-0.6,0.4-1.1,0.8-1.8,1c-1.2,0.4-2.3,0.6-3.2,0.7C275.2,418.5,274.1,418.2,274.1,418.1z"/>
			</g>
			<g>
				<path class="st8" d="M39,371.4c0.1-0.2,1.4,0.2,3.6-0.1c0.5-0.1,1.1-0.2,1.8-0.4c0.3-0.1,0.6-0.1,1-0.2c0.3-0.1,0.7-0.2,1-0.3
					c0.3-0.1,0.7-0.2,1-0.4c0.3-0.2,0.7-0.3,0.9-0.5c0.5-0.4,0.9-1.1,1.3-1.8c0.2-0.5,0.7-1,1.2-1.2c0.5-0.2,0.9-0.3,1.4-0.4
					c0.2,0,0.4-0.1,0.5-0.1c0.2,0,0.4-0.1,0.6-0.1c0.4-0.1,0.8-0.2,1.2-0.2c0.4-0.1,0.7-0.1,1.1-0.2c0.2,0,0.3-0.1,0.5-0.1l0.2,0
					c0,0,0,0,0.1,0l0.1,0c0.6-0.2,1.2-0.4,1.7-0.6c2-0.8,3.2-1.6,3.3-1.5c0.1,0.1-0.9,1.2-2.9,2.3c-0.5,0.3-1.1,0.5-1.7,0.8
					l-0.1,0.1c-0.1,0-0.1,0-0.2,0.1l-0.3,0.1c-0.2,0-0.3,0.1-0.5,0.1c-0.3,0.1-0.7,0.2-1.1,0.3c-0.4,0.1-0.7,0.2-1.1,0.3
					c-0.2,0-0.4,0.1-0.6,0.1c-0.2,0-0.4,0.1-0.6,0.1c-0.4,0.1-0.7,0.2-1,0.3c-0.3,0.2-0.4,0.3-0.6,0.6c-0.4,0.8-0.8,1.6-1.7,2.2
					c-0.4,0.3-0.8,0.5-1.2,0.6c-0.4,0.2-0.8,0.3-1.1,0.4c-0.4,0.1-0.8,0.2-1.1,0.3c-0.4,0.1-0.7,0.1-1,0.2c-0.6,0.1-1.3,0.2-1.9,0.2
					c-1.2,0.1-2.1-0.1-2.8-0.3C39.2,371.7,38.9,371.5,39,371.4z"/>
			</g>
			<g>
				<path class="st8" d="M62.1,371.7c-0.1-0.2,0.2-0.5,0.7-0.8c0.5-0.4,1.2-0.8,1.5-1.3c0.1-0.1,0.1-0.2,0.1-0.3c0-0.1,0-0.1,0-0.1
					c0-0.1,0-0.1,0-0.2c-0.1-0.2-0.2-0.5-0.4-0.7c-0.4-0.4-0.6-0.7-0.6-0.9c0.1-0.2,0.5-0.2,1.1,0.1c0.3,0.2,0.7,0.4,1,0.9
					c0.1,0.1,0.1,0.3,0.2,0.4c0.1,0.2,0.1,0.4,0.1,0.5c0,0.3-0.1,0.7-0.3,0.9c-0.4,0.5-0.8,0.8-1.2,1c-0.4,0.2-0.7,0.3-1.1,0.4
					C62.6,371.9,62.2,371.9,62.1,371.7z"/>
			</g>
			<g>
				<path class="st8" d="M423.6,428.4c0,0.1-0.7,0.5-2.2,0.8c-0.7,0.1-1.6,0.2-2.7-0.2c-0.5-0.2-1.1-0.5-1.4-1.1
					c-0.2-0.3-0.3-0.7-0.2-1.1c0.1-0.4,0.2-0.7,0.5-1l0,0.1c0.1-0.1,0.2-0.3,0.3-0.4c0.1-0.1,0.2-0.2,0.3-0.3
					c0.2-0.1,0.6-0.3,0.5-0.3c0,0,0,0,0,0c0,0,0,0,0,0c-0.2-0.1-0.5-0.2-0.8-0.4c-0.5-0.3-1-0.5-1.4-0.8c-0.1-0.1-0.2-0.1-0.3-0.2
					c-0.1-0.1-0.2-0.2-0.2-0.3c-0.2-0.2-0.3-0.3-0.4-0.5c-0.6-0.6-0.9-1.2-1.2-1.6c-0.2-0.4-0.3-0.6-0.3-0.7
					c0.1-0.1,0.3,0.1,0.7,0.4c0.4,0.3,0.9,0.8,1.5,1.3c0.1,0.1,0.3,0.3,0.5,0.4l0.2,0.2l0.3,0.1c0.4,0.2,0.8,0.5,1.3,0.7
					c0.2,0.1,0.4,0.2,0.8,0.3c0.3,0.1,0.6,0.2,0.8,0.3c0.2,0.1,0.4,0.2,0.6,0.3l0.6,0.3c0,0,0.1,0,0.1,0l-0.1,0.1l-0.1,0.1l-0.2,0.3
					c-0.3,0.3-0.6,0.6-1.2,0.9c-0.5,0.2-0.5,0.3-0.7,0.4l-0.2,0.1c0,0.1-0.1,0.1-0.1,0.1l-0.1,0.1c-0.2,0.3-0.3,0.5-0.2,0.8
					c0.1,0.3,0.5,0.5,0.8,0.7c0.7,0.3,1.5,0.4,2.1,0.4C422.7,428.3,423.6,428.2,423.6,428.4z"/>
			</g>
			<g>
				<path class="st8" d="M679,372.2c-0.1-0.2,1.3-0.8,3.3-1.7c1-0.5,2.2-1.2,3-2.2c0.4-0.5,0.4-1,0.1-1.5c-0.1-0.3-0.4-0.5-0.7-0.7
					c0,0-0.1,0-0.1-0.1c0,0-0.1,0-0.2-0.1l-0.3-0.1l-0.5,0c-0.4-0.1-1.9,0-3.1,0l0.1-0.1c0.6-0.3,1.2-0.7,1.8-1
					c0.3-0.2,0.7-0.3,1-0.5c0.4-0.2,0.7-0.3,1.1-0.5c0.4-0.2,0.8-0.3,1.2-0.5c0.4-0.1,0.7-0.3,1-0.5c0.6-0.3,1.2-0.7,1.5-1.1
					c0.3-0.4,0.5-0.9,0.3-1.2c-0.1-0.3-0.5-0.6-0.9-0.7c-0.4-0.2-0.8-0.2-1.1-0.3c-0.6-0.1-1-0.2-1-0.3c0-0.1,0.4-0.2,1-0.2
					c0.3,0,0.8,0,1.2,0.1c0.5,0.1,1.1,0.3,1.6,1c0.4,0.8,0.2,1.6-0.3,2.3c-0.5,0.7-1.2,1.1-1.9,1.5c-0.4,0.2-0.7,0.4-1.1,0.5
					c-0.3,0.1-0.7,0.3-1,0.5c0,0,0,0,0,0l0,0c0,0,0,0,0,0l0.1,0.1c0.1,0,0.1,0.1,0.2,0.1c0.4,0.3,0.8,0.7,1.1,1.1
					c0.6,0.9,0.4,2.3-0.3,2.9c-1.1,1.3-2.5,1.9-3.6,2.3C680.4,372.1,679,372.4,679,372.2z"/>
			</g>
			<g>
				<path class="st2" d="M391.3,454.3c1.6-2.3,1.8-6.1-1.3-7.3c-1.5-0.5-3.6,0-4.9,0.7c-1.4,0.9-1.4,2.7-1.7,4.1
					c-1.2-0.5-2.3-1.1-3.7-0.9c-1.2,0.2-2.6,0.7-3.2,1.8c-0.7,1-0.9,2.1-0.7,3.1c0.1,1.2,0.4,1.8,1.5,2.3c-0.9,1-1.7,2.2-1.6,3.6
					c0.1,1.4,1.3,2.2,2.7,2.7c1.5,0.6,3,0.4,4.6,0.1c1.4-0.3,2.1,0.3,3.1,1.3c1.3,1.1,2.9,1.5,4.5,0.6c1.5-1,1.9-2.7,1.8-4.4
					c0-0.4,0-0.7,0.5-0.9c0.5-0.2,1.2-0.2,1.7-0.4c1.7-0.6,2.7-2.1,2.8-3.8c0-2.9-3.5-4.4-5.9-3.1"/>
				<path class="st6" d="M387.6,458.6c0.8-0.8,1-1.7,0.1-2.5c-0.9-1-2.7-1.2-3.7-0.1c-2.3,2.9,3.4,4.9,3.8,2.3"/>
			</g>
			<g>
				<path class="st8" d="M308.5,453.4c0.1,0.1-0.1,0.3-0.6,0.8c-0.3,0.2-0.6,0.5-1,0.7c-0.3,0.1-0.3,0.2-0.4,0.2l-0.1,0.1l0,0
					c0,0,0,0,0.1,0c0.1,0,0.2,0.1,0.3,0.2c0.2,0.2,0.5,0.4,0.8,0.7c0.1,0.2,0.3,0.5,0.3,0.8c0,0.3-0.2,0.6-0.4,0.8
					c-0.4,0.4-0.7,0.5-1.1,0.7c-0.8,0.3-1.6,0.6-2.5,0.7c-0.9,0.1-1.8,0.1-2.7,0.2c0.1-0.4,0.1-0.9,0.2-1.3c0.5,0.2,1,0.3,1.5,0.6
					c0.1,0.1,0.3,0.2,0.4,0.3c0.1,0.1,0.2,0.2,0.3,0.4c0.2,0.3,0.3,0.7,0.2,1.1c-0.1,0.8-0.5,1.2-0.9,1.6c-0.7,0.7-1.6,1.2-2.4,1.6
					c-0.4,0.2-0.8,0.3-1.2,0.5c-0.2,0.1-0.4,0.1-0.6,0.1c-0.2,0-0.4,0.1-0.5,0.1c-0.8,0.2-1.5,0.1-2.2,0.1c-1.3-0.1-2.3-0.4-3-0.6
					c-0.7-0.2-1.1-0.3-1-0.4c0-0.1,0.4-0.1,1.1-0.1c0.7,0,1.7,0.2,3,0.2c0.6,0,1.3,0,1.9-0.2c0.2,0,0.4-0.1,0.6-0.1
					c0.2,0,0.3-0.1,0.5-0.1c0.3-0.1,0.7-0.3,1-0.4c0.7-0.4,1.4-0.8,2-1.4c0.2-0.3,0.5-0.6,0.5-0.8c0-0.2-0.1-0.3-0.4-0.6
					c-0.2-0.1-0.3-0.2-0.5-0.3l-0.6-0.2l-3.6-1.3l3.8,0c0.9,0,1.7,0,2.5-0.1c0.8-0.1,1.5-0.3,2.1-0.5c0.3-0.1,0.6-0.3,0.8-0.4
					c0.1-0.1,0.1-0.1,0.1-0.1c0,0,0-0.1-0.1-0.2c-0.1-0.2-0.3-0.4-0.6-0.6c-0.4-0.3-0.8-0.7-1.1-1c-0.1-0.1-0.2-0.2-0.2-0.2l0.3-0.1
					c0.2-0.1,0.4-0.1,0.6-0.2c0.4-0.1,0.8-0.3,1-0.3c0.4-0.1,0.7-0.3,1-0.4C308.1,453.5,308.4,453.3,308.5,453.4z"/>
			</g>
			<g>
				<path class="st8" d="M521.8,446.7c-0.2,0.1-0.7-0.7-1.7-1.6c-1-1-2.6-2.2-4.5-3.3c-1-0.5-1.8-1-2.7-1.3
					c-0.9-0.3-1.7-0.4-2.4-0.5c-1.4-0.2-2.4-0.3-2.4-0.5c0-0.2,0.9-0.4,2.4-0.4c0.8,0,1.7,0,2.7,0.3c1,0.2,2.1,0.8,3.1,1.3
					c2,1.2,3.6,2.6,4.5,3.8C521.7,445.7,521.9,446.7,521.8,446.7z"/>
			</g>
			<g>
				<path class="st8" d="M529.1,447.1c-0.2,0.3-1.9-0.5-3.7-1.7c-1.9-1.3-3.2-2.7-2.9-2.9c0.2-0.3,1.9,0.5,3.7,1.8
					C528,445.5,529.3,446.8,529.1,447.1z"/>
			</g>
			<g>
				<path class="st8" d="M513.8,485.7c0,0.1-0.1,0.3-0.5,0.5c-0.4,0.2-1,0.5-1.7,0.6c-0.7,0.2-1.6,0.3-2.5,0.4
					c-0.2,0-0.5,0.1-0.7,0.1c-0.2,0.1-0.5,0.1-0.7,0.2c-0.5,0.2-1,0.3-1.5,0.5c-1.1,0.3-1.9,0.8-2.8,1.2c-0.8,0.4-1.5,0.9-2.2,1.2
					c-1.1,0.8-1.9,1.3-2.1,1.2c-0.1-0.1,0.4-0.8,1.5-1.9c0.6-0.5,1.3-1,2.2-1.5c0.9-0.4,1.9-1,2.9-1.3c0.5-0.2,1.1-0.4,1.6-0.5
					c0.3-0.1,0.5-0.1,0.8-0.2c0.3,0,0.5-0.1,0.8-0.1c1-0.1,1.9-0.1,2.6-0.2C512.9,485.9,513.7,485.6,513.8,485.7z"/>
			</g>
			<g>
				<path class="st8" d="M521.1,487.1c0,0.4-3.4,0.5-7.2,1.8c-1.9,0.7-3.4,1.6-4.6,2.4c-1.1,0.8-1.8,1.3-1.9,1.2
					c-0.1-0.1,0.3-0.8,1.3-1.9c1-1,2.7-2.1,4.7-2.9c2-0.7,4-0.9,5.4-0.9C520.3,486.7,521.1,486.9,521.1,487.1z"/>
			</g>
			<g>
				<path class="st8" d="M170.5,397.7c0.1,0.2-0.4,0.7-1.1,1.4c-0.3,0.4-0.7,0.9-1.3,1.4c-0.2,0.3-0.5,0.5-0.9,0.8
					c-0.2,0.1-0.3,0.3-0.5,0.4l-0.3,0.2c-0.1,0.1-0.3,0.1-0.3,0.2c-0.4,0.2-0.8,0.3-1.2,0.4c-0.4,0.1-0.8,0.2-1.2,0.2
					c-0.7,0.1-1.4,0.1-2,0.1c-1.1-0.1-1.8-0.3-1.8-0.4c0-0.2,0.7-0.3,1.7-0.5c0.5-0.1,1.1-0.1,1.8-0.3c0.3-0.1,0.7-0.1,1-0.3
					c0.3-0.1,0.7-0.3,1-0.4c1.2-0.7,2.3-1.8,3.1-2.4C169.7,397.8,170.4,397.6,170.5,397.7z"/>
			</g>
			<g>
				<path class="st8" d="M170.5,395.1c0.2,0.3-0.6,1.3-1.8,2.2c-1.2,0.9-2.3,1.4-2.6,1.1c-0.2-0.3,0.6-1.3,1.8-2.2
					C169.1,395.3,170.2,394.8,170.5,395.1z"/>
			</g>
			<g>
				<path class="st8" d="M71.1,458.7c-0.1,0-0.3-0.1-0.5-0.5c-0.2-0.1-0.3-0.3-0.5-0.5c-0.2-0.2-0.5-0.4-0.8-0.6
					c-0.6-0.5-1.4-0.9-2.2-1.5c-0.9-0.6-1.8-1.1-2.8-1.7c-2-1.2-4-2-5.4-2.6c-1.4-0.5-2.4-0.7-2.3-1c0-0.2,1-0.3,2.6,0.1
					c1.6,0.3,3.7,1.1,5.8,2.3c1,0.6,2.1,1.2,2.9,1.9c0.8,0.6,1.6,1.2,2.2,1.8c0.3,0.3,0.5,0.6,0.7,0.8c0.2,0.3,0.3,0.5,0.4,0.7
					C71.2,458.4,71.2,458.7,71.1,458.7z"/>
			</g>
			<g>
				<path class="st8" d="M75.8,460.4c-0.2,0.1-0.5-0.3-1.1-0.9c-0.5-0.6-1.3-1.4-2.2-2.3c-0.9-0.9-1.7-1.8-2.2-2.5
					c-0.5-0.7-0.7-1.2-0.6-1.3c0.1-0.1,0.6,0.2,1.3,0.7c0.7,0.5,1.5,1.3,2.4,2.2c0.9,0.9,1.6,1.9,2,2.7
					C75.9,459.8,75.9,460.3,75.8,460.4z"/>
			</g>
			<g>
				<path class="st8" d="M197.1,476.1c0,0.2-0.4,0.5-1.1,0.9c-0.7,0.4-1.7,1.1-2.7,1.9c-1,0.8-1.8,1.6-2.4,2.2c-0.6,0.6-1,1-1.1,0.9
					c-0.2-0.1-0.1-0.7,0.4-1.5c0.4-0.8,1.2-1.8,2.3-2.7c1.1-0.9,2.2-1.5,3.1-1.7C196.5,475.9,197.1,475.9,197.1,476.1z"/>
			</g>
			<g>
				<path class="st8" d="M200.5,477.7c0.2,0.3-1.5,1.6-3.7,2.8c-2.2,1.3-4.1,2.2-4.3,1.9c-0.2-0.3,1.4-1.6,3.6-3
					C198.3,478.1,200.3,477.4,200.5,477.7z"/>
			</g>
			<g>
				<path class="st8" d="M643.5,397.4c-0.1,0-0.1-0.2-0.2-0.6c-0.1-0.3-0.2-0.9-0.7-1.1c-0.5-0.2-1.2-0.2-2.1,0
					c-0.9,0.2-1.8,0.7-2.8,1.2l-1.7,0.9l0.9-1.7c0.5-0.9,1.2-1.6,1.5-2.3c0.2-0.4,0.2-0.6,0.1-0.7c-0.1-0.2-0.5-0.4-0.9-0.5
					c-0.7-0.2-1.5,0-2.2,0.3c-0.8,0.3-1.5,0.7-2.1,1.2c-0.6,0.5-1.2,1-1.7,1.4c-0.5,0.5-1,0.9-1.4,1.3c-0.4,0.4-0.8,0.8-1.1,1.2
					c-0.3,0.3-0.6,0.7-0.8,0.9c-0.4,0.5-0.7,0.8-0.8,0.7c-0.1,0,0.1-0.4,0.4-1c0.2-0.3,0.3-0.7,0.6-1.1c0.3-0.4,0.6-0.9,1-1.4
					c0.4-0.5,0.9-1,1.4-1.5c0.5-0.5,1.1-1.1,1.7-1.6c0.7-0.5,1.4-1,2.3-1.4c0.9-0.4,1.9-0.7,3.1-0.4c0.3,0.1,0.6,0.2,0.9,0.3
					c0.1,0.1,0.3,0.2,0.4,0.3c0.1,0.1,0.3,0.3,0.4,0.4c0.2,0.3,0.3,0.8,0.3,1.2c-0.1,0.4-0.2,0.6-0.3,0.9c-0.5,1-1.3,1.6-1.6,2.2
					c-0.3-0.3-0.5-0.5-0.8-0.8c1.1-0.5,2.1-0.9,3.1-1.1c1-0.2,2-0.2,2.7,0.4c0.2,0.1,0.3,0.3,0.4,0.5c0.1,0.2,0.1,0.3,0.2,0.5
					c0,0.3,0.1,0.6,0,0.7C643.6,397.2,643.5,397.4,643.5,397.4z"/>
			</g>
		</g>
	</g>
</g>
</svg>
